<svg width="334" height="250" viewBox="0 0 334 250" fill="none" xmlns="http://www.w3.org/2000/svg">
<path d="M218.367 19.1418H13.267C7.04114 19.1418 1.99414 24.1888 1.99414 30.4147V81.2782C1.99414 87.5038 7.04114 92.551 13.267 92.551H218.367C224.593 92.551 229.64 87.5038 229.64 81.2782V30.4147C229.64 24.1888 224.593 19.1418 218.367 19.1418Z" fill="white"/>
<path d="M229.639 64.9755V88.1502C229.639 90.5916 224.768 92.5679 218.794 92.5679H13.9612C7.9691 92.5679 3.11523 90.5916 3.11523 88.1502V74.7364C16.924 78.4296 32.6459 80.9201 48.7708 82.4672C68.2572 84.3362 88.3414 84.8817 108.341 84.9622C132.257 85.0606 156.57 84.4748 179.081 81.1974C199.71 78.2016 218.838 72.6796 229.639 64.9755Z" fill="#F4F7F2"/>
<path d="M218.153 94.4152H13.053C9.59297 94.4116 6.27561 93.036 3.8286 90.5897C1.38158 88.1437 0.0047121 84.8269 0 81.3667V30.4988C0.0047121 27.0388 1.38158 23.722 3.8286 21.2758C6.27561 18.8296 9.59297 17.4539 13.053 17.4503H218.153C221.614 17.4539 224.932 18.8302 227.379 21.2774C229.826 23.7245 231.202 27.0425 231.206 30.5033V81.3711C231.2 84.8304 229.823 88.146 227.376 90.5914C224.929 93.0365 221.612 94.4116 218.153 94.4152ZM13.053 21.0106C10.5368 21.013 8.12439 22.0132 6.34481 23.792C4.56524 25.5707 3.56384 27.9827 3.5603 30.4988V81.3667C3.56266 83.8834 4.56355 86.2968 6.34326 88.0765C8.12296 89.8562 10.5361 90.8571 13.053 90.8594H218.153C220.67 90.8571 223.083 89.8562 224.863 88.0765C226.643 86.2968 227.644 83.8834 227.646 81.3667V30.4988C227.644 27.982 226.643 25.5688 224.863 23.7891C223.083 22.0094 220.67 21.0085 218.153 21.0062L13.053 21.0106Z" fill="#202220"/>
<path d="M321.171 133.072H86.7298C80.5042 133.072 75.457 138.118 75.457 144.344V195.208C75.457 201.433 80.5042 206.481 86.7298 206.481H321.171C327.397 206.481 332.444 201.433 332.444 195.208V144.344C332.444 138.118 327.397 133.072 321.171 133.072Z" fill="white"/>
<path d="M331.108 178.905V202.08C331.108 204.521 325.631 206.497 318.876 206.497H87.888C81.1329 206.497 75.6562 204.521 75.6562 202.08V188.666C91.228 192.359 108.959 194.85 127.14 196.397C149.091 198.266 171.759 198.811 194.316 198.892C221.274 198.99 248.702 198.404 274.085 195.127C297.359 192.131 318.929 186.609 331.108 178.905Z" fill="#F4F7F2"/>
<path d="M168.367 133.254C144.157 134.705 110.512 133.303 89.6355 138.639C79.7245 141.167 77.2813 146.071 75.6836 150.126L75.7147 138.773C75.7147 137.317 75.8527 135.733 78.4829 134.62C81.7361 133.25 87.4459 133.143 92.4749 133.147C117.166 133.156 144.166 132.177 168.367 133.254Z" fill="#569B4A"/>
<path d="M320.931 208.344H86.4846C83.0244 208.34 79.7071 206.965 77.2603 204.519C74.813 202.073 73.4365 198.756 73.4316 195.296V144.428C73.4352 140.967 74.8117 137.649 77.2585 135.202C79.7058 132.755 83.024 131.378 86.4846 131.375H320.931C324.391 131.378 327.709 132.755 330.157 135.202C332.603 137.649 333.98 140.967 333.983 144.428V195.296C333.979 198.756 332.602 202.073 330.155 204.519C327.708 206.965 324.391 208.34 320.931 208.344ZM86.4846 134.94C83.9684 134.942 81.5563 135.942 79.7765 137.721C77.9968 139.5 76.9955 141.911 76.9919 144.428V195.296C76.9942 197.813 77.9951 200.226 79.7748 202.005C81.5545 203.785 83.9679 204.786 86.4846 204.788H320.931C323.447 204.786 325.861 203.785 327.64 202.005C329.42 200.226 330.421 197.813 330.423 195.296V144.428C330.421 141.911 329.42 139.498 327.64 137.718C325.861 135.938 323.447 134.938 320.931 134.935L86.4846 134.94Z" fill="#202220"/>
<path d="M288.586 1.50378H54.1752C47.9496 1.50378 42.9023 6.55078 42.9023 12.7766V222.029C42.9023 228.255 47.9496 233.302 54.1752 233.302H288.586C294.811 233.302 299.858 228.255 299.858 222.029V12.7766C299.858 6.55078 294.811 1.50378 288.586 1.50378Z" fill="#45853A"/>
<path d="M299.857 146.586V219.403C299.857 227.071 294.348 233.284 287.552 233.284H55.1842C48.3884 233.284 42.8789 227.053 42.8789 219.403V177.294C58.5442 188.9 76.3769 196.733 94.6635 201.597C116.746 207.476 139.546 209.194 162.234 209.443C189.354 209.75 216.938 207.908 242.474 197.605C265.91 188.162 287.61 170.796 299.857 146.586Z" fill="#569B4A"/>
<path d="M135.803 2.08695C111.597 6.67528 77.9749 2.24716 57.0803 19.0874C47.1738 27.0714 44.7305 42.5542 43.1328 55.3578L43.1684 19.5191C43.1684 14.9307 43.3064 9.91516 45.9366 6.41271C49.1898 2.08695 54.8997 1.75317 59.9241 1.75317C84.6059 1.77987 111.602 -1.25529 135.803 2.08695Z" fill="#569B4A"/>
<path d="M288.345 235.358H53.9299C50.4693 235.355 47.1511 233.978 44.7038 231.531C42.2568 229.084 40.8805 225.766 40.877 222.305V13.053C40.8805 9.59217 42.2568 6.27419 44.7038 3.82703C47.1511 1.37989 50.4693 0.00353441 53.9299 0H288.345C291.805 0.00353441 295.123 1.37989 297.571 3.82703C300.018 6.27419 301.394 9.59217 301.398 13.053V222.31C301.393 225.77 300.016 229.087 297.569 231.533C295.122 233.979 291.805 235.355 288.345 235.358ZM53.9299 3.5603C51.4132 3.56266 48.9997 4.56355 47.22 6.34326C45.4403 8.12296 44.4396 10.5361 44.4373 13.053V222.31C44.4396 224.826 45.4403 227.24 47.22 229.02C48.9997 230.799 51.4132 231.8 53.9299 231.802H288.345C290.862 231.8 293.275 230.799 295.054 229.02C296.834 227.24 297.835 224.826 297.837 222.31V13.053C297.835 10.5361 296.834 8.12296 295.054 6.34326C293.275 4.56355 290.862 3.56266 288.345 3.5603H53.9299Z" fill="#202220"/>
<path d="M270.569 16.449H73.2302C69.3321 16.449 66.1719 19.6092 66.1719 23.5073V208.977C66.1719 212.875 69.3321 216.035 73.2302 216.035H270.569C274.467 216.035 277.627 212.875 277.627 208.977V23.5073C277.627 19.6092 274.467 16.449 270.569 16.449Z" fill="white"/>
<path d="M277.289 22.1087V60.8625H65.8203V22.1087C65.8203 19.1358 68.8466 16.7237 72.5804 16.7237H270.529C274.263 16.7237 277.289 19.1358 277.289 22.1087Z" fill="#E7EAE4"/>
<path d="M270.317 218.923H72.9869C70.6433 218.921 68.3968 217.989 66.7399 216.332C65.0826 214.675 64.1507 212.429 64.1484 210.085V23.1691C64.152 20.8265 65.0844 18.5809 66.7412 16.9248C68.3981 15.2688 70.6442 14.3374 72.9869 14.3351H270.317C272.66 14.3374 274.907 15.2694 276.564 16.9264C278.221 18.5835 279.153 20.8302 279.155 23.1735V210.089C279.152 212.432 278.219 214.678 276.562 216.334C274.905 217.99 272.659 218.921 270.317 218.923ZM72.9869 17.8954C71.5877 17.8977 70.2463 18.4546 69.257 19.4439C68.2677 20.4333 67.711 21.7744 67.7087 23.1735V210.089C67.7123 211.488 68.2695 212.828 69.2588 213.816C70.2481 214.805 71.5886 215.361 72.9869 215.363H270.317C271.716 215.361 273.057 214.804 274.046 213.814C275.035 212.825 275.593 211.484 275.595 210.085V23.1691C275.591 21.7707 275.034 20.4307 274.045 19.4424C273.055 18.454 271.715 17.8977 270.317 17.8954H72.9869Z" fill="#202220"/>
<path d="M179.617 42.5411H89.6797V50.3115H179.617V42.5411Z" fill="white"/>
<path d="M86.875 79.9867H130.876V78.1398H86.875V79.9867Z" fill="#969995"/>
<path d="M86.875 84.0547H182.643V82.2078H86.875V84.0547Z" fill="#969995"/>
<path d="M86.875 88.1228H130.876V86.2759H86.875V88.1228Z" fill="#969995"/>
<path d="M86.875 92.1887H182.643V90.3418H86.875V92.1887Z" fill="#969995"/>
<path d="M86.875 96.2567H130.876V94.4098H86.875V96.2567Z" fill="#969995"/>
<path d="M86.875 100.321H182.643V98.4744H86.875V100.321Z" fill="#969995"/>
<path d="M86.875 116.742H130.876V114.895H86.875V116.742Z" fill="#969995"/>
<path d="M86.875 120.81H182.643V118.964H86.875V120.81Z" fill="#969995"/>
<path d="M86.875 124.878H130.876V123.032H86.875V124.878Z" fill="#969995"/>
<path d="M86.875 128.944H182.643V127.097H86.875V128.944Z" fill="#969995"/>
<path d="M86.875 133.012H130.876V131.166H86.875V133.012Z" fill="#969995"/>
<path d="M86.875 137.077H182.643V135.23H86.875V137.077Z" fill="#969995"/>
<path d="M86.875 153.498H130.876V151.651H86.875V153.498Z" fill="#969995"/>
<path d="M86.875 157.566H182.643V155.719H86.875V157.566Z" fill="#969995"/>
<path d="M86.875 161.634H130.876V159.787H86.875V161.634Z" fill="#969995"/>
<path d="M86.875 165.7H182.643V163.853H86.875V165.7Z" fill="#969995"/>
<path d="M86.875 169.768H130.876V167.921H86.875V169.768Z" fill="#969995"/>
<path d="M86.875 173.833H182.643V171.986H86.875V173.833Z" fill="#969995"/>
<path d="M235.406 28.8927H268.437V25.0075H235.406V28.8927Z" fill="#DC616E"/>
<path d="M197.818 28.8927H230.849V25.0075H197.818V28.8927Z" fill="#DC616E"/>
<path d="M76.3292 30.6938C78.3987 30.6938 80.0765 29.0161 80.0765 26.9466C80.0765 24.877 78.3987 23.1993 76.3292 23.1993C74.2598 23.1993 72.582 24.877 72.582 26.9466C72.582 29.0161 74.2598 30.6938 76.3292 30.6938Z" fill="#DC616E"/>
<path d="M208.804 167.441L196.855 178.771L221.1 204.337L233.048 193.007L208.804 167.441Z" fill="#202220"/>
<g opacity="0.5">
<path opacity="0.5" d="M198.439 167.845C214.01 153.079 214.663 128.485 199.897 112.914C185.13 97.3422 160.537 96.6893 144.965 111.456C129.394 126.222 128.741 150.816 143.507 166.388C158.274 181.959 182.868 182.611 198.439 167.845Z" fill="#45853A"/>
<path opacity="0.5" d="M151.225 162.105C147.296 157.963 144.328 153.006 142.533 147.587C140.737 142.167 140.159 136.418 140.839 130.75C141.519 125.081 143.44 119.633 146.466 114.791C149.492 109.95 153.549 105.836 158.346 102.741C153.213 104.622 148.534 107.566 144.616 111.379C140.698 115.192 137.628 119.789 135.609 124.869C133.589 129.95 132.663 135.399 132.894 140.862C133.124 146.324 134.505 151.676 136.945 156.569C139.385 161.461 142.831 165.784 147.056 169.253C151.281 172.723 156.191 175.262 161.464 176.704C166.738 178.147 172.257 178.46 177.659 177.624C183.063 176.788 188.228 174.82 192.819 171.851C185.691 174.467 177.954 174.938 170.563 173.206C163.171 171.474 156.448 167.615 151.225 162.105Z" fill="#569B4A"/>
</g>
<path d="M214.107 98.1669C209.872 93.6912 204.971 89.8977 199.577 86.9208C199.483 86.863 199.39 86.814 199.287 86.7651C186.815 79.9733 172.335 77.8385 158.435 80.7415C144.533 83.6449 132.118 91.397 123.407 102.613C114.697 113.828 110.259 127.776 110.887 141.964C111.515 156.15 117.168 169.652 126.835 180.054C126.973 180.21 127.115 180.361 127.28 180.499C131.701 185.172 136.848 189.099 142.523 192.128L142.683 192.212C155.224 198.846 169.713 200.807 183.566 197.748C197.419 194.688 209.735 186.806 218.315 175.508C226.896 164.21 231.183 150.231 230.412 136.065C229.641 121.899 223.863 108.467 214.107 98.1669ZM199.47 112.915C204.758 118.492 208.274 125.511 209.573 133.085C210.872 140.66 209.896 148.45 206.769 155.469C203.641 162.489 198.502 168.423 192.001 172.522C185.5 176.621 177.93 178.7 170.248 178.497C162.565 178.293 155.115 175.816 148.841 171.379C142.566 166.941 137.749 160.743 134.997 153.567C132.245 146.392 131.682 138.562 133.381 131.067C135.079 123.571 138.962 116.749 144.539 111.46C148.241 107.949 152.599 105.201 157.363 103.374C162.128 101.547 167.205 100.676 172.306 100.812C177.407 100.948 182.432 102.086 187.092 104.164C191.753 106.242 195.959 109.217 199.47 112.92V112.915Z" fill="#CCCFCA"/>
<path d="M218.304 174.198C208.144 183.834 194.925 189.602 180.95 190.496C166.975 191.391 153.129 187.357 141.822 179.095C130.515 170.833 122.464 158.867 119.07 145.281C115.677 131.695 117.155 117.349 123.249 104.741C118.323 111.446 114.849 119.104 113.049 127.227C111.25 135.35 111.164 143.759 112.797 151.917C114.43 160.075 117.746 167.803 122.534 174.608C127.321 181.413 133.475 187.144 140.603 191.436C147.73 195.729 155.674 198.488 163.927 199.538C172.181 200.587 180.562 199.904 188.537 197.532C196.512 195.161 203.905 191.152 210.243 185.762C216.581 180.373 221.726 173.721 225.349 166.231C223.241 169.09 220.883 171.755 218.304 174.198Z" fill="#CCCFCA"/>
<path d="M171.188 201.277C160.943 201.282 150.86 198.714 141.865 193.81L141.642 193.689C128.579 186.502 118.552 174.836 113.409 160.841C113.293 160.538 113.182 160.223 113.08 159.898C109.017 148.209 108.568 135.567 111.79 123.619C115.011 111.672 121.755 100.971 131.144 92.9088C140.532 84.8469 152.13 79.7984 164.428 78.4201C176.725 77.0414 189.153 79.397 200.094 85.1802C200.214 85.2381 200.334 85.3048 200.45 85.3716C211.966 91.563 221.215 101.257 226.858 113.052C232.502 124.846 234.248 138.13 231.843 150.983C229.438 163.835 223.008 175.589 213.482 184.546C203.956 193.502 191.828 199.196 178.852 200.806C176.309 201.119 173.75 201.276 171.188 201.277ZM171.291 81.5621C162.022 81.5652 152.889 83.7859 144.654 88.0387C136.419 92.2915 129.321 98.4526 123.953 106.008C118.585 113.563 115.102 122.294 113.796 131.469C112.49 140.645 113.398 150 116.444 158.754V158.807C116.529 159.074 116.627 159.341 116.725 159.604C121.571 172.805 131.028 183.808 143.351 190.583L143.507 190.668C155.657 197.313 169.782 199.397 183.333 196.543C196.884 193.688 208.969 186.084 217.406 175.102C225.843 164.12 230.076 150.484 229.341 136.655C228.607 122.826 222.953 109.715 213.4 99.6885C209.145 95.1882 204.194 91.4019 198.736 88.4735L198.669 88.4335L198.527 88.3578L198.46 88.3222C190.092 83.8852 180.763 81.5687 171.291 81.5754V81.5621ZM171.291 180.276C170.921 180.276 170.556 180.276 170.187 180.276C159.471 180.13 149.248 175.752 141.748 168.097C134.248 160.443 130.079 150.133 130.152 139.416C130.225 128.7 134.533 118.447 142.137 110.895C149.741 103.343 160.022 99.1046 170.739 99.1046C181.455 99.1046 191.737 103.343 199.341 110.895C206.944 118.447 211.252 128.7 211.325 139.416C211.398 150.133 207.23 160.443 199.729 168.097C192.23 175.752 182.006 180.13 171.291 180.276ZM171.242 102.563C161.753 102.544 152.622 106.188 145.754 112.737C139.531 118.639 135.547 126.515 134.481 135.025C133.415 143.535 135.332 152.152 139.906 159.407C144.48 166.661 151.428 172.106 159.567 174.813C167.705 177.519 176.53 177.32 184.538 174.249C192.545 171.179 199.241 165.427 203.483 157.973C207.726 150.519 209.253 141.825 207.804 133.372C206.355 124.919 202.02 117.23 195.537 111.614C189.054 105.999 180.826 102.805 172.252 102.577C171.923 102.577 171.59 102.577 171.255 102.577L171.242 102.563Z" fill="#202220"/>
<path d="M218.355 188.436L218.352 188.439C213.28 193.249 213.067 201.26 217.877 206.333L253.862 244.28C258.672 249.352 266.684 249.564 271.756 244.754L271.759 244.751C276.831 239.941 277.044 231.93 272.234 226.858L236.248 188.911C231.438 183.839 223.427 183.626 218.355 188.436Z" fill="#464745"/>
<path d="M262.523 250H262.127C260.232 249.958 258.363 249.54 256.631 248.77C254.898 248.001 253.336 246.896 252.033 245.519L216.052 207.566C214.747 206.19 213.726 204.571 213.047 202.801C212.368 201.03 212.045 199.143 212.095 197.248C212.145 195.353 212.568 193.486 213.34 191.754C214.111 190.022 215.217 188.459 216.592 187.154C217.968 185.85 219.588 184.829 221.358 184.15C223.128 183.471 225.015 183.147 226.91 183.197C228.806 183.247 230.673 183.671 232.405 184.442C234.136 185.214 235.699 186.319 237.004 187.695L272.99 225.635C275.616 228.417 277.032 232.126 276.931 235.951C276.829 239.776 275.217 243.405 272.447 246.044C269.773 248.593 266.217 250.011 262.523 250ZM226.523 186.761C224.399 186.765 222.323 187.392 220.551 188.562C218.778 189.733 217.387 191.396 216.548 193.348C215.709 195.299 215.46 197.453 215.83 199.545C216.201 201.636 217.175 203.574 218.633 205.118L254.614 243.062C256.604 245.147 259.339 246.36 262.22 246.437C265.102 246.514 267.896 245.448 269.995 243.472C272.08 241.481 273.293 238.747 273.37 235.866C273.446 232.984 272.38 230.19 270.404 228.091L234.423 190.147C233.406 189.074 232.181 188.221 230.823 187.638C229.464 187.056 228.001 186.757 226.523 186.761Z" fill="#202220"/>
<g opacity="0.5">
<path opacity="0.5" d="M230.485 193.182C234.935 196.92 238.375 201.571 242.532 205.594C243.769 206.791 245.647 204.904 244.419 203.707C240.262 199.701 236.822 195.033 232.372 191.295C231.063 190.195 229.168 192.073 230.485 193.182Z" fill="white"/>
<path opacity="0.5" d="M222.804 192.341C223.517 191.899 224.318 191.62 225.151 191.523C225.984 191.426 226.828 191.514 227.624 191.78C229.275 192.261 229.982 189.684 228.336 189.203C227.196 188.844 225.993 188.732 224.806 188.874C223.62 189.017 222.477 189.412 221.455 190.031C219.982 190.921 221.322 193.222 222.791 192.336L222.804 192.341Z" fill="white"/>
</g>
<path d="M186.048 90.854C193.146 93.0125 199.822 96.4659 205.367 101.393C212.407 107.623 217.196 115.803 220.124 124.686C220.658 126.31 223.24 125.616 222.701 123.974C219.635 114.672 214.633 106.043 207.258 99.4967C201.348 94.2541 194.29 90.5959 186.764 88.2728C185.118 87.7699 184.414 90.3467 186.052 90.8496L186.048 90.854Z" fill="white"/>
<path d="M160.114 88.3761C164.756 87.7619 169.567 87.9889 174.204 88.4607C175.913 88.6342 175.9 85.964 174.204 85.7904C169.567 85.3187 164.756 85.0917 160.114 85.7059C158.437 85.9284 158.414 88.6031 160.114 88.3761Z" fill="white"/>
</svg>
