<svg width="43" height="44" viewBox="0 0 43 44" fill="none" xmlns="http://www.w3.org/2000/svg">
<path d="M37.4471 21.8609C37.4471 20.6858 37.2984 19.6233 37.1745 18.9857C38.054 18.5357 38.8096 17.8606 39.1069 16.8355C39.8006 14.4354 37.6948 12.5977 36.6543 11.8727C37.0631 10.5976 37.7939 7.52232 36.0969 5.83469C35.4404 5.17214 34.1397 4.54709 31.7614 5.28465C30.9562 5.53467 30.2625 5.87219 29.829 6.09721C28.7637 5.32215 25.8651 3.53451 23.8956 5.10963C23.6974 5.25964 23.5363 5.42216 23.3753 5.58467C23.1647 4.27207 22.6569 2.90946 21.4925 2.30941C19.4362 1.24683 16.5872 3.19698 15.5219 4.00955C14.3327 3.48451 11.0997 2.33442 9.19206 4.42208C8.20109 5.50966 7.96574 6.97228 8.52316 8.65991C8.58509 8.84742 8.65941 9.03494 8.73374 9.20995C8.46122 9.22245 8.1887 9.25995 7.89141 9.29746C7.68083 9.32246 7.49503 9.43497 7.38354 9.60998C7.25967 9.785 7.22251 9.99751 7.27206 10.1975L10.9882 26.4488L2.44108 34.962C2.20573 35.1995 1.83412 35.737 2.08186 36.6621C2.50302 38.2122 4.52212 40.2249 6.08289 40.6374C6.30586 40.6999 6.49167 40.7249 6.67748 40.7249C7.24728 40.7249 7.60651 40.4749 7.79232 40.2874L15.9554 32.1617C15.9926 32.6993 15.9926 33.2868 15.9183 33.6243C15.8935 33.7244 15.8687 33.8494 15.8316 33.9744C15.5962 34.937 15.1998 36.5496 15.3237 37.7247C15.5962 40.5874 17.2685 41.8125 17.3428 41.8625C17.4667 41.95 17.6153 42 17.7639 42C17.9869 42 18.2099 41.9 18.3585 41.7C18.5939 41.375 18.5196 40.9249 18.1851 40.6874C18.1851 40.6874 16.9712 39.7623 16.7606 37.5872C16.6739 36.6496 17.0207 35.187 17.2437 34.3119C17.2808 34.1744 17.3056 34.0494 17.3304 33.9494C17.3676 33.7869 17.3923 33.5868 17.4047 33.3868C18.8664 35.6745 21.2571 39.3998 21.703 39.9623C22.2729 40.6749 23.5611 41.4875 26.5092 41.4875C26.6827 41.4875 26.8561 41.4875 27.0419 41.4875C27.4383 41.4875 27.7603 41.1374 27.748 40.7374C27.7356 40.3374 27.4011 40.0248 26.9923 40.0373C23.9327 40.1374 23.0409 39.3123 22.8427 39.0623C22.4834 38.6122 20.3157 35.262 18.5072 32.4243L32.678 36.0495C32.74 36.062 32.8019 36.0745 32.8638 36.0745C33.1735 36.0745 33.4708 35.8745 33.5699 35.562C33.5699 35.537 33.6566 35.312 33.7309 34.937C35.4775 33.9119 36.1836 31.5242 36.4066 30.4741C37.6329 30.1741 40.5934 29.1615 40.9774 26.3363C41.2747 24.1486 38.5619 22.4485 37.4347 21.8484L37.4471 21.8609ZM24.8494 6.25972C26.2863 5.10963 29.284 7.52232 29.3087 7.54732L29.7175 7.88485L30.1758 7.60983C31.0801 7.05978 33.9291 5.74718 35.0687 6.87227C36.2703 8.05986 35.4899 10.8976 35.0935 11.8852L34.8582 12.4852L35.4156 12.8102C35.4156 12.8102 38.2646 14.4729 37.6948 16.423C37.2365 18.0231 34.3503 18.3607 33.1735 18.3607C33.1487 18.3607 33.124 18.3607 33.0992 18.3607H32.5542L32.3807 18.8732C32.3807 18.8982 31.6499 21.0359 29.8042 22.111C28.838 20.4858 27.0543 19.2982 24.4901 18.5607C24.3787 18.0481 24.1557 17.2231 23.685 16.3355C24.453 15.9605 25.6545 15.2479 26.3111 14.2353C26.6455 15.6355 27.909 16.6855 29.4202 16.6855C31.1792 16.6855 32.6161 15.2604 32.6161 13.5103C32.6161 11.7601 31.1792 10.335 29.4202 10.335C28.2558 10.335 27.2277 10.9601 26.6703 11.8977C26.212 10.36 24.6264 9.02244 23.7221 8.35988C23.7469 7.90985 23.908 7.02228 24.8494 6.27222V6.25972ZM30.4731 23.7986C30.5598 23.7861 30.6465 23.7736 30.7456 23.7736C31.6871 23.7736 32.4427 24.5361 32.4427 25.4737C32.4427 26.4113 31.6747 27.1738 30.7456 27.1738C30.6094 27.1738 30.4731 27.1613 30.3492 27.1238C30.5722 26.3238 30.7704 25.1112 30.4731 23.7986ZM27.7108 13.4978C27.7108 12.5602 28.4788 11.7977 29.4078 11.7977C30.3369 11.7977 31.1049 12.5602 31.1049 13.4978C31.1049 14.4354 30.3369 15.1979 29.4078 15.1979C28.4788 15.1979 27.7108 14.4354 27.7108 13.4978ZM10.3193 5.42216C11.8677 3.73453 15.2617 5.52216 15.2989 5.53467L15.7448 5.77218L16.1288 5.44716C16.934 4.7596 19.5229 2.95946 20.8359 3.62202C22.1366 4.28457 22.0994 7.43481 21.9756 8.48489L21.926 8.94743L22.3224 9.19745C23.0656 9.65999 25.2086 11.2851 25.3077 12.6352C25.382 13.6603 23.7965 14.6354 22.8674 15.0729C22.5578 14.6854 22.1985 14.3228 21.765 13.9853C21.1456 13.4978 20.4519 13.1353 19.6963 12.8727C19.8202 12.5352 19.8945 12.1602 19.8945 11.7726C19.8945 10.0225 18.4576 8.5974 16.6987 8.5974C15.4228 8.5974 14.3203 9.34746 13.8125 10.435C13.0073 9.91001 11.8925 9.40997 10.4308 9.24745C9.93529 8.30988 9.254 6.58475 10.3317 5.42216H10.3193ZM18.3957 11.7852C18.3957 12.0602 18.3337 12.3102 18.2099 12.5352C17.479 12.4352 16.6863 12.4227 15.8563 12.4977C15.6829 12.2227 15.4104 11.8477 15.0264 11.4476C15.1874 10.6726 15.8687 10.085 16.6987 10.085C17.6401 10.085 18.3957 10.8476 18.3957 11.7852ZM6.72702 39.2373C6.56599 39.2998 5.72367 39.0498 4.69554 38.0247C3.66741 36.9996 3.40728 36.162 3.4816 36.012L11.8057 27.7239L15.0512 30.9491L6.72702 39.2373ZM32.3188 34.4369L16.7358 30.4491L12.4499 26.1863L8.91954 10.6851C13.2426 10.4475 14.7043 13.4603 14.7663 13.5978C14.9025 13.8978 15.2122 14.0728 15.5466 14.0228C17.7392 13.7353 19.5105 14.1103 20.8236 15.1354C22.7807 16.673 23.0904 19.1982 23.0904 19.2232C23.1276 19.5358 23.3381 19.7858 23.6478 19.8608C26.2739 20.5358 27.9833 21.6734 28.7142 23.236C29.668 25.2612 28.6646 27.4239 28.6522 27.4364C28.5655 27.6239 28.5531 27.8239 28.6274 28.0239C28.7018 28.2114 28.8504 28.3614 29.0362 28.4489C32.6409 29.9866 32.5665 33.0618 32.3312 34.4369H32.3188ZM39.5033 26.1488C39.1813 28.5365 35.6881 29.124 35.6509 29.124L35.1059 29.2115L35.0316 29.7615C34.9449 30.3741 34.598 31.7867 33.8796 32.7993C33.8796 32.6368 33.8548 32.4743 33.83 32.2992C33.669 31.1367 33.1735 29.6865 31.8233 28.4614C33.0496 28.0114 33.9291 26.8488 33.9291 25.4737C33.9291 24.0986 33.0125 22.886 31.7614 22.461C32.74 21.5234 33.3098 20.4358 33.5823 19.8233C34.0902 19.7983 34.9077 19.7233 35.7624 19.4983C35.8739 20.1733 35.9978 21.1984 35.9482 22.2735L35.9235 22.761L36.3694 22.9735C37.4595 23.4861 39.6767 24.9362 39.5033 26.1488Z" fill="#969995"/>
</svg>
