<svg width="31" height="44" viewBox="0 0 31 44" fill="none" xmlns="http://www.w3.org/2000/svg">
<path d="M7.27138 12.9454C6.36908 12.9454 5.63351 13.695 5.63351 14.6045C5.63351 15.514 6.36908 16.2636 7.27138 16.2636C8.17367 16.2636 8.90924 15.514 8.90924 14.6045C8.90924 13.695 8.17367 12.9454 7.27138 12.9454ZM7.27138 15.2741C6.9085 15.2741 6.61427 14.9743 6.61427 14.6045C6.61427 14.2347 6.9085 13.9348 7.27138 13.9348C7.63425 13.9348 7.92848 14.2347 7.92848 14.6045C7.92848 14.9743 7.63425 15.2741 7.27138 15.2741Z" fill="#969995"/>
<path d="M28.1615 14.8644C28.4165 13.5851 27.112 12.2258 25.8273 12.4857C25.5526 12.0659 25.1113 11.806 24.6209 11.7061C25.3565 11.2863 25.8763 10.4068 25.7096 9.55724C26.7884 8.83762 26.7884 6.91864 25.7096 6.19902C25.9646 4.9197 24.6602 3.56043 23.3754 3.82029C22.6692 2.73087 20.7862 2.72087 20.08 3.82029C18.7952 3.56043 17.4908 4.90971 17.7458 6.19902C17.5203 6.34894 17.3437 6.54884 17.2162 6.77872C17.1868 6.14905 16.922 5.53937 16.412 5.19955C16.667 3.92023 15.3626 2.56096 14.0778 2.82082C13.3717 1.7314 11.4886 1.7214 10.7825 2.82082C9.49769 2.56096 8.19328 3.91024 8.44828 5.19955C7.36945 5.91917 7.36945 7.83815 8.44828 8.55777C8.30117 9.29738 8.67385 10.057 9.26231 10.5267C9.15442 10.5267 9.04654 10.5267 8.93866 10.5567C8.23251 9.46729 6.34946 9.45729 5.64332 10.5567C4.35853 10.2968 3.05413 11.6461 3.30912 12.9354C2.23029 13.6551 2.23029 15.574 3.30912 16.2937C3.05413 17.573 4.35853 18.9323 5.64332 18.6724C6.34946 19.7718 8.23251 19.7718 8.93866 18.6724C9.22308 18.7324 9.50749 18.7124 9.78211 18.6224L11.0571 22.4104C10.9198 22.7003 10.8511 23.0301 10.8511 23.3699C10.8511 23.9596 11.0767 24.4993 11.4396 24.9091V29.7165L8.63462 41.1704C8.54635 41.5303 8.76212 41.8901 9.10538 41.98C9.15442 41.99 9.21327 42 9.26231 42C9.55653 42 9.82134 41.8001 9.8998 41.5003L12.6361 30.3162H15.2743V41.3404C15.2743 41.7102 15.5686 42 15.9314 42C16.2943 42 16.5885 41.7002 16.5885 41.3404V30.3162H19.2268L21.9631 41.5003C22.0415 41.8001 22.3063 42 22.6006 42C22.6496 42 22.7085 42 22.7575 41.98C23.1106 41.8901 23.3165 41.5303 23.2283 41.1704L20.3448 29.3767V24.999C20.7568 24.5793 21.0118 24.0096 21.0118 23.3699C21.0118 23.0301 20.9333 22.7003 20.8058 22.4104L21.4629 20.4614C21.8062 20.6214 22.1788 20.6813 22.5613 20.6014C23.2675 21.7008 25.1505 21.7008 25.8567 20.6014C27.1415 20.8612 28.4459 19.5119 28.1909 18.2226C29.2697 17.503 29.2697 15.584 28.1909 14.8644H28.1615ZM19.266 6.84868C17.7556 5.78924 19.6681 3.85027 20.7077 5.37946C20.3743 3.55043 23.0713 3.55043 22.7477 5.37946C23.7873 3.84028 25.6998 5.78924 24.1894 6.84868C25.994 6.50886 25.994 9.2574 24.1894 8.91758L24.4934 9.22741C25.484 10.3868 23.4833 11.7061 22.7477 10.3768C23.0811 12.2158 20.3841 12.2058 20.7077 10.3768C19.6681 11.916 17.7556 9.96702 19.266 8.90758C17.4614 9.2474 17.4614 6.49886 19.266 6.83868V6.84868ZM19.3347 11.916C19.5798 11.976 19.825 11.9859 20.08 11.936C20.3546 12.3558 20.796 12.6156 21.2864 12.7156C20.7764 13.0054 20.3841 13.5051 20.237 14.0748C20.1095 13.725 19.8839 13.4152 19.57 13.2053C19.6583 12.7655 19.5602 12.3158 19.3445 11.926L19.3347 11.916ZM18.3441 16.2237C19.3347 17.3831 17.3339 18.7024 16.5984 17.3731C16.9318 19.2121 14.2347 19.2021 14.5584 17.3731C13.5188 18.9123 11.6063 16.9633 13.1167 15.9039C13.0088 15.9239 12.9107 15.9239 12.8126 15.9239C12.793 15.9239 12.7734 15.9339 12.7538 15.9339C12.744 15.9339 12.7342 15.9339 12.7244 15.9339C12.6557 15.9339 12.5969 15.9139 12.538 15.8939C12.0673 15.7839 11.7142 15.3841 11.7142 14.8744C11.7142 14.5146 11.9005 14.2148 12.1653 14.0249C12.1948 14.0049 12.2242 13.9849 12.2634 13.9649C12.3223 13.9349 12.3713 13.9049 12.4301 13.8849C12.5282 13.845 12.6361 13.825 12.7538 13.815C12.7538 13.815 12.7538 13.815 12.7636 13.815C12.8715 13.815 12.9892 13.815 13.1167 13.845C11.6063 12.7855 13.5188 10.8466 14.5584 12.3757C14.2249 10.5467 16.922 10.5467 16.5984 12.3757C17.638 10.8366 19.5504 12.7855 18.0401 13.845C19.8447 13.5051 19.8447 16.2537 18.0401 15.9139L18.3441 16.2237ZM11.5965 13.1953C11.5965 13.1953 11.5867 13.2053 11.5769 13.2053C11.4886 13.0954 11.3807 13.0054 11.263 12.9255C11.4102 12.1858 11.0375 11.4262 10.449 10.9565C10.5569 10.9565 10.6648 10.9565 10.7727 10.9265C11.0375 11.3363 11.4788 11.5962 11.9496 11.6961C11.6455 12.1259 11.4886 12.6656 11.5867 13.1853L11.5965 13.1953ZM16.9416 7.97808C16.971 8.60774 17.2358 9.21742 17.7458 9.55724C17.6576 9.99701 17.7556 10.4468 17.9714 10.8366C17.7262 10.7766 17.481 10.7666 17.226 10.8166C16.9612 10.4068 16.5199 10.1469 16.0491 10.047C16.3532 9.61721 16.5101 9.07749 16.412 8.55777C16.6376 8.40785 16.8141 8.20796 16.9416 7.97808ZM9.96845 5.84921C8.45809 4.78977 10.3706 2.8508 11.4102 4.37999C11.0767 2.55096 13.7738 2.55096 13.4501 4.37999C14.4897 2.84081 16.4022 4.78977 14.8918 5.84921C16.6964 5.50939 16.6964 8.25793 14.8918 7.91811L15.1959 8.22795C16.1864 9.38733 14.1857 10.7066 13.4501 9.37733C13.7836 11.2164 11.0865 11.2064 11.4102 9.37733C10.3706 10.9165 8.45809 8.96755 9.96845 7.90812C8.16386 8.24793 8.16386 5.4994 9.96845 5.83921V5.84921ZM10.0371 15.9538C11.0277 17.1132 9.02692 18.4325 8.29136 17.1032C8.62481 18.9423 5.92774 18.9323 6.25139 17.1032C5.21179 18.6424 3.29932 16.6934 4.80968 15.634C3.00509 15.9738 3.00509 13.2253 4.80968 13.5651C3.29932 12.5057 5.21179 10.5667 6.25139 12.0959C5.91793 10.2669 8.61501 10.2669 8.29136 12.0959C9.33096 10.5567 11.2434 12.5057 9.73307 13.5651C10.3411 13.4552 10.7432 13.685 10.9394 14.0349C10.7825 14.4346 10.7531 14.8844 10.8315 15.3142C10.6059 15.574 10.2431 15.724 9.73307 15.634L10.0371 15.9438V15.9538ZM12.1261 23.3599C12.1261 22.8302 12.5576 22.3904 13.0774 22.3904C13.3717 22.3904 13.9405 22.5204 14.4701 22.7702C15.0586 23.0501 15.2351 23.2999 15.2547 23.3599C15.2351 23.4199 15.0684 23.6697 14.4701 23.9496C13.9405 24.1995 13.3717 24.3294 13.0774 24.3294C12.5478 24.3294 12.1261 23.8996 12.1261 23.3599ZM19.0012 28.9669H12.7048V25.6287C12.8224 25.6487 12.9499 25.6587 13.0676 25.6587C13.4207 25.6587 13.9601 25.5587 14.5093 25.3588L13.7738 27.1179C13.6365 27.4577 13.7836 27.8475 14.117 27.9874C14.2053 28.0274 14.2838 28.0374 14.372 28.0374C14.627 28.0374 14.8624 27.8875 14.9703 27.6376L15.8922 25.4488L16.8141 27.6376C16.922 27.8875 17.1574 28.0374 17.4124 28.0374C17.5006 28.0374 17.5889 28.0174 17.6674 27.9874C18.0008 27.8475 18.1479 27.4577 18.0106 27.1179L17.2751 25.3588C17.8243 25.5587 18.3637 25.6587 18.7168 25.6587C18.8149 25.6587 18.9031 25.6587 19.0012 25.6387V28.9669ZM18.7168 24.3294C18.4226 24.3294 17.8537 24.1995 17.3241 23.9496C16.7357 23.6697 16.5591 23.4199 16.5395 23.3599C16.5591 23.2999 16.7259 23.0501 17.3241 22.7702C17.8439 22.5204 18.4226 22.3904 18.7168 22.3904C19.2464 22.3904 19.6681 22.8202 19.6681 23.3599C19.6681 23.8996 19.2366 24.3294 18.7168 24.3294ZM19.7466 21.321C19.4327 21.1611 19.0895 21.0711 18.7168 21.0711C18.0401 21.0711 16.6964 21.4409 15.8922 22.1306C15.088 21.4409 13.7444 21.0711 13.0676 21.0711C12.6949 21.0711 12.3419 21.1611 12.0378 21.321L10.8609 17.8129C11.1846 17.3731 11.3513 16.8234 11.2434 16.2837C11.2434 16.2837 11.2532 16.2737 11.263 16.2737C11.3611 16.3836 11.4592 16.4736 11.5867 16.5535C11.3317 17.8328 12.6361 19.1921 13.9209 18.9323C14.627 20.0317 16.5101 20.0317 17.2162 18.9323C18.2362 19.1421 19.2562 18.3326 19.521 17.3531C19.6485 17.7029 19.8741 18.0127 20.1879 18.2226C20.0996 18.6424 20.1879 19.0722 20.3841 19.452L19.7564 21.331L19.7466 21.321ZM26.6217 17.573L26.9257 17.8828C27.9163 19.0422 25.9155 20.3615 25.18 19.0322C25.5134 20.8712 22.8163 20.8612 23.14 19.0322C22.1004 20.5714 20.1879 18.6224 21.6983 17.563C19.8937 17.9028 19.8937 15.1543 21.6983 15.4941C20.1879 14.4346 22.1004 12.4957 23.14 14.0249C22.8065 12.1958 25.5036 12.1958 25.18 14.0249C26.2196 12.4857 28.132 14.4346 26.6217 15.4941C28.4263 15.1543 28.4263 17.9028 26.6217 17.563V17.573Z" fill="#969995"/>
<path d="M21.7277 9.54717C22.63 9.54717 23.3656 8.79757 23.3656 7.88805C23.3656 6.97853 22.63 6.22893 21.7277 6.22893C20.8254 6.22893 20.0899 6.97853 20.0899 7.88805C20.0899 8.79757 20.8254 9.54717 21.7277 9.54717ZM21.7277 7.21841C22.0906 7.21841 22.3848 7.51825 22.3848 7.88805C22.3848 8.25785 22.0906 8.5577 21.7277 8.5577C21.3648 8.5577 21.0706 8.25785 21.0706 7.88805C21.0706 7.51825 21.3648 7.21841 21.7277 7.21841Z" fill="#969995"/>
<path d="M12.4203 8.5477C13.3226 8.5477 14.0582 7.7981 14.0582 6.88858C14.0582 5.97907 13.3226 5.22946 12.4203 5.22946C11.518 5.22946 10.7825 5.97907 10.7825 6.88858C10.7825 7.7981 11.518 8.5477 12.4203 8.5477ZM12.4203 6.21894C12.7832 6.21894 13.0774 6.51878 13.0774 6.88858C13.0774 7.25839 12.7832 7.55823 12.4203 7.55823C12.0575 7.55823 11.7632 7.25839 11.7632 6.88858C11.7632 6.51878 12.0575 6.21894 12.4203 6.21894Z" fill="#969995"/>
<path d="M15.5784 13.2153C14.6761 13.2153 13.9405 13.9649 13.9405 14.8744C13.9405 15.7839 14.6761 16.5335 15.5784 16.5335C16.4807 16.5335 17.2162 15.7839 17.2162 14.8744C17.2162 13.9649 16.4807 13.2153 15.5784 13.2153ZM15.5784 15.544C15.2155 15.544 14.9213 15.2442 14.9213 14.8744C14.9213 14.5046 15.2155 14.2048 15.5784 14.2048C15.9412 14.2048 16.2355 14.5046 16.2355 14.8744C16.2355 15.2442 15.9412 15.544 15.5784 15.544Z" fill="#969995"/>
<path d="M24.1796 14.8744C23.2773 14.8744 22.5417 15.624 22.5417 16.5335C22.5417 17.443 23.2773 18.1926 24.1796 18.1926C25.0819 18.1926 25.8175 17.443 25.8175 16.5335C25.8175 15.624 25.0819 14.8744 24.1796 14.8744ZM24.1796 17.2031C23.8167 17.2031 23.5225 16.9033 23.5225 16.5335C23.5225 16.1637 23.8167 15.8638 24.1796 15.8638C24.5425 15.8638 24.8367 16.1637 24.8367 16.5335C24.8367 16.9033 24.5425 17.2031 24.1796 17.2031Z" fill="#969995"/>
</svg>
