<svg width="56" height="44" viewBox="0 0 56 44" fill="none" xmlns="http://www.w3.org/2000/svg">
<path d="M49.9026 19.3571H48.6998V19.1946C48.1234 9.54764 40.0916 2 30.3933 2H25.4063C15.7205 2 7.67614 9.56014 7.12482 19.1946V19.3571H6.09735C3.84193 19.3571 2 21.194 2 23.4433C2 25.6926 3.84193 27.5295 6.09735 27.5295H7.23759L7.26265 27.6795C7.63855 30.1787 8.59084 33.1403 9.8188 35.577C11.9113 39.7132 14.5301 42 17.199 42H38.613C41.2819 42 43.9007 39.7132 45.9933 35.577C47.2212 33.1403 48.186 30.1912 48.5494 27.6795L48.5745 27.5295H49.9026C52.1581 27.5295 54 25.6926 54 23.4433C54 21.194 52.1581 19.3571 49.9026 19.3571ZM9.66843 18.4199C10.6082 10.4599 17.3745 4.46173 25.4063 4.46173H30.3933C38.5128 4.46173 45.2916 10.5223 46.1561 18.5698L46.2188 19.1821L45.8554 18.6948C45.2039 17.8326 44.1137 17.3077 42.8607 17.2452H42.748L42.7104 17.1328C42.6352 16.8828 42.5224 16.6454 42.4096 16.433C41.9335 15.5833 41.1566 15.0209 40.1166 14.7585C38.4376 14.3461 36.7586 15.3708 36.0443 17.2452L36.0067 17.3577H35.8814C35.6058 17.3577 35.3176 17.3702 35.0545 17.4327C34.8289 17.4827 34.6159 17.5451 34.4029 17.6326L33.8766 17.845L34.1899 17.3827C34.6284 16.7204 34.8164 15.9456 34.7412 15.0584C34.5908 13.3714 33.1123 12.1218 31.1325 12.0219H31.0198L30.9822 11.9094C30.907 11.6595 30.8067 11.4346 30.6814 11.2096C30.2053 10.3599 29.4284 9.79756 28.3884 9.53515C26.6969 9.11028 25.0304 10.1475 24.3161 12.0219L24.2786 12.1343H24.1533C23.8651 12.1343 23.5894 12.1468 23.3263 12.2093C22.3614 12.4092 21.5971 12.9591 21.0333 13.8713C20.4067 14.871 20.4193 16.0956 21.0333 17.2077L21.2463 17.5826L20.8328 17.4452C20.4569 17.3202 20.0684 17.2577 19.6549 17.2327H19.5422L19.5046 17.1203C19.4294 16.8704 19.3292 16.6454 19.2039 16.4205C18.7277 15.5708 17.9508 15.0084 16.9108 14.746C15.2318 14.3212 13.5528 15.3583 12.8386 17.2327L12.801 17.3452H12.6757C12.4 17.3452 12.1118 17.3702 11.8487 17.4202C11.1094 17.5701 10.4704 17.945 9.95663 18.5323L9.59325 18.9447L9.6559 18.3949L9.66843 18.4199ZM14.3422 19.0197L14.0916 19.2071C13.5027 19.657 13.0641 20.2943 12.8636 21.0066V21.0565L12.8135 21.094C12.5253 21.3315 11.974 21.8438 11.4978 22.5186L11.3851 22.681L11.2472 22.5436C10.3576 21.7063 10.1195 20.6192 10.6458 19.7819C11.0217 19.1696 11.4978 18.8197 12.1118 18.6948C12.6757 18.5823 13.3398 18.6573 14.0665 18.9322L14.3547 19.0322L14.3422 19.0197ZM14.0665 17.5826L14.1542 17.4077C14.6805 16.308 15.6578 15.7457 16.6101 15.9956C17.2993 16.1706 17.788 16.508 18.1012 17.0578C18.3769 17.5576 18.5022 18.2074 18.4771 18.9822V19.2946L18.214 19.1197C17.6251 18.7073 16.9484 18.4948 16.2342 18.4948H16.0713L16.0337 18.4699C15.7205 18.2699 15.0689 17.9075 14.2795 17.6451L14.0916 17.5826H14.0665ZM11.8236 24.8679C11.8863 24.3055 12.1619 23.7057 12.6381 23.0809L12.826 22.8435L12.9263 23.1309C13.1769 23.8307 13.653 24.4305 14.267 24.8429L14.3046 24.8679L14.3296 24.9178C14.48 25.2677 14.7933 25.9425 15.2819 26.6048L15.3947 26.7548L15.2193 26.8422C14.7557 27.0922 14.292 27.2171 13.8535 27.2171C13.2771 27.2171 12.7634 26.9922 12.3875 26.5673C11.9239 26.03 11.7234 25.4677 11.7986 24.8429L11.8236 24.8679ZM14.0039 21.9563C14.0039 20.7441 14.9937 19.7445 16.2217 19.7445C17.4496 19.7445 18.4395 20.7316 18.4395 21.9563C18.4395 23.1809 17.4496 24.1681 16.2217 24.1681C14.9937 24.1681 14.0039 23.1809 14.0039 21.9563ZM16.3345 25.4302C17.0737 25.4052 17.8005 25.1428 18.3769 24.6804L18.4145 24.6429H18.4646C18.9282 24.6054 19.6299 24.493 20.3692 24.243L20.5571 24.1806L20.5947 24.368C20.8328 25.5676 20.3942 26.5923 19.467 26.9672C19.1161 27.1172 18.7904 27.1796 18.4771 27.1796C18.1889 27.1796 17.9133 27.1172 17.6376 27.0047C17.1113 26.7673 16.6227 26.3299 16.1841 25.6801L16.0087 25.4302H16.3219H16.3345ZM19.7802 23.1059L19.4795 23.1934L19.5672 22.8935C19.6549 22.5811 19.7051 22.2687 19.7051 21.9438C19.7051 21.5439 19.6424 21.1565 19.5046 20.7816V20.7316V20.6817C19.6048 20.3068 19.7552 19.5445 19.7552 18.6948V18.4948L19.9431 18.5198C21.121 18.6823 21.9354 19.4071 22.0106 20.3693C22.0733 21.0815 21.8978 21.6564 21.4843 22.1187C21.0959 22.5436 20.532 22.8685 19.7802 23.0934V23.1059ZM30.9696 15.5708V15.5208V15.4708C31.0699 15.0959 31.2202 14.3336 31.2202 13.4839V13.284L31.4082 13.309C32.586 13.4714 33.4005 14.1962 33.4757 15.1584C33.5383 15.8707 33.3629 16.4455 32.9494 16.9078C32.561 17.3327 31.9971 17.6576 31.2453 17.8825L30.9446 17.97L31.0323 17.6701C31.12 17.3577 31.1701 17.0453 31.1701 16.7204C31.1701 16.3205 31.1075 15.9331 30.9696 15.5583V15.5708ZM31.8467 19.0197L32.0347 18.9572L32.0723 19.1446C32.3104 20.3443 31.8718 21.3689 30.9446 21.7438C30.5937 21.8938 30.268 21.9563 29.9547 21.9563C29.6665 21.9563 29.3908 21.8938 29.1152 21.7813C28.5889 21.5439 28.1002 21.1065 27.6617 20.4567L27.4863 20.2068H27.7995C28.5388 20.1693 29.2655 19.9069 29.8419 19.4445L29.8795 19.4071H29.9296C30.3055 19.3696 31.0448 19.2821 31.8342 19.0072L31.8467 19.0197ZM25.4689 16.7329C25.4689 15.5208 26.4588 14.5211 27.6867 14.5211C28.9147 14.5211 29.9046 15.5083 29.9046 16.7329C29.9046 17.9575 28.9147 18.9447 27.6867 18.9447C26.4588 18.9447 25.4689 17.9575 25.4689 16.7329ZM26.8848 21.5314L26.7094 21.6314C26.2458 21.8813 25.7822 22.0063 25.3436 22.0063C24.7672 22.0063 24.2535 21.7813 23.8776 21.3565C23.414 20.8191 23.2135 20.2568 23.2887 19.632C23.3513 19.0697 23.627 18.4699 24.1031 17.845L24.2911 17.6076L24.3913 17.895C24.6419 18.5948 25.1181 19.1946 25.732 19.607L25.7696 19.632L25.7947 19.682C25.9701 20.1068 26.2834 20.7441 26.747 21.3689L26.8598 21.5189L26.8848 21.5314ZM29.9296 14.0587L29.679 13.8838C29.0901 13.4714 28.4135 13.259 27.6993 13.259H27.5364L27.4988 13.234C27.1855 13.0341 26.534 12.6717 25.7446 12.4092L25.5566 12.3468L25.6443 12.1718C26.1706 11.0722 27.1354 10.5098 28.1002 10.7598C28.7894 10.9347 29.2781 11.2721 29.5913 11.8219C29.867 12.3218 29.9923 12.9716 29.9672 13.7463V14.0587H29.9296ZM25.8072 13.7838L25.5566 13.9713C24.9677 14.4211 24.5292 15.0584 24.3287 15.7707V15.8207L24.2786 15.8582C23.9277 16.1581 23.414 16.6454 22.9629 17.2827L22.8501 17.4452L22.7123 17.3077C21.8227 16.4705 21.5846 15.3833 22.1108 14.5461C22.4867 13.9338 22.9629 13.5839 23.5769 13.4589C24.1282 13.3465 24.7923 13.4214 25.5316 13.6963L25.8198 13.7963L25.8072 13.7838ZM21.7976 23.5183C22.0357 23.3558 22.2361 23.1684 22.4116 22.9685C22.5745 22.7935 22.7123 22.6061 22.8251 22.4061L22.9378 22.2187L23.1007 22.3686C23.6896 22.9435 24.479 23.2684 25.3436 23.2684C26.1455 23.2684 26.9475 23.0059 27.6867 22.5186L27.787 22.4561L27.8872 22.5311C28.1128 22.706 28.3634 22.8435 28.6014 22.9435C29.4911 23.3433 30.4559 23.3308 31.4333 22.9185C31.8092 22.7685 32.1349 22.5436 32.4231 22.2562L32.586 22.0937L32.6988 22.2937C32.9745 22.8185 33.388 23.3183 33.8892 23.7182L33.9769 23.7932L33.9393 23.9057C33.8516 24.1806 33.7889 24.443 33.7513 24.7054C33.7513 24.7679 33.7513 24.8304 33.7388 24.8928V25.0553H21.9354V24.8928C21.9354 24.5055 21.8602 24.1056 21.7475 23.7057L21.7099 23.5933L21.8101 23.5183H21.7976ZM33.814 19.757C34.1899 19.1446 34.666 18.7948 35.28 18.6698C35.8439 18.5573 36.508 18.6323 37.2347 18.9072L37.5229 19.0072L37.2723 19.1946C36.6834 19.6445 36.2448 20.2818 36.0443 20.9941V21.0441L35.9942 21.0815C35.706 21.319 35.1547 21.8313 34.6786 22.5061L34.5658 22.6685L34.428 22.5311C33.5383 21.6938 33.3002 20.6067 33.8265 19.7694L33.814 19.757ZM37.2472 17.5826L37.3349 17.4077C37.8612 16.308 38.826 15.7457 39.7908 15.9956C40.48 16.1706 40.9687 16.508 41.2819 17.0578C41.5576 17.5576 41.6829 18.2074 41.6578 18.9822V19.2946L41.3947 19.1197C40.8058 18.7073 40.1292 18.4948 39.4149 18.4948H39.252L39.2145 18.4699C38.9012 18.2699 38.2496 17.9075 37.4602 17.6451L37.2723 17.5826H37.2472ZM35.0043 24.8679C35.067 24.3055 35.3427 23.7057 35.8188 23.0809L36.0067 22.8435L36.107 23.1309C36.3576 23.8307 36.8337 24.4305 37.4477 24.8429L37.4853 24.8679L37.5104 24.9178C37.6858 25.3427 37.999 25.98 38.4627 26.6048L38.5754 26.7548L38.4 26.8422C37.9364 27.0922 37.4728 27.2171 37.0342 27.2171C36.4578 27.2171 35.9441 26.9922 35.5682 26.5673C35.1046 26.03 34.9041 25.4677 34.9793 24.8429L35.0043 24.8679ZM37.1846 21.9563C37.1846 20.7441 38.1745 19.7445 39.4024 19.7445C40.6304 19.7445 41.6202 20.7316 41.6202 21.9563C41.6202 23.1809 40.6304 24.1681 39.4024 24.1681C38.1745 24.1681 37.1846 23.1809 37.1846 21.9563ZM39.5152 25.4302C40.2545 25.4052 40.9812 25.1428 41.5576 24.6804L41.5952 24.6429H41.6453C42.1089 24.6054 42.8106 24.493 43.5499 24.243L43.7378 24.1806L43.7754 24.368C44.0135 25.5676 43.5749 26.5923 42.6477 26.9672C42.2969 27.1172 41.9711 27.1796 41.6578 27.1796C41.3696 27.1796 41.094 27.1172 40.8183 27.0047C40.292 26.7673 39.8034 26.3299 39.3648 25.6801L39.1894 25.4302H39.5027H39.5152ZM42.961 23.1059L42.6602 23.1934L42.748 22.8935C42.8357 22.5811 42.8858 22.2687 42.8858 21.9438C42.8858 21.5439 42.8231 21.1565 42.6853 20.7816V20.7316V20.6817C42.7855 20.3068 42.9359 19.5445 42.9359 18.6948V18.4948L43.1239 18.5198C44.3017 18.6823 45.1161 19.4071 45.1913 20.3693C45.254 21.0815 45.0786 21.6564 44.6651 22.1187C44.2766 22.5436 43.7128 22.8685 42.961 23.0934V23.1059ZM6.08482 25.0553C5.19518 25.0553 4.4559 24.3305 4.4559 23.4308C4.4559 22.5311 5.18265 21.8188 6.08482 21.8188H9.28L9.31759 21.9313C9.58072 22.6061 10.0569 23.2184 10.6834 23.7307L10.7711 23.8057L10.7335 23.9182C10.6458 24.1931 10.5831 24.4555 10.5455 24.7179C10.5455 24.7804 10.5455 24.8429 10.533 24.9053V25.0678H6.09735L6.08482 25.0553ZM46.0308 27.717C45.6549 29.8788 44.8029 32.3905 43.7754 34.4524C42.1716 37.6264 40.2419 39.5133 38.6005 39.5133H17.199C15.5701 39.5133 13.628 37.6264 12.0241 34.4524C10.9841 32.403 10.1446 29.8788 9.76867 27.717L9.73108 27.517H11.573L11.6231 27.567C12.212 28.1543 13.014 28.4792 13.8786 28.4792C14.668 28.4792 15.4824 28.2168 16.2217 27.7295L16.3219 27.667L16.4222 27.742C16.6602 27.9169 16.8983 28.0544 17.1364 28.1668C18.026 28.5667 18.9783 28.5542 19.9682 28.1418C20.3065 28.0044 20.6072 27.8169 20.8578 27.5795L20.908 27.542H34.7537L34.8039 27.592C35.3928 28.1793 36.1947 28.5042 37.0718 28.5042C37.8612 28.5042 38.6757 28.2418 39.4149 27.7545L39.5152 27.692L39.6154 27.767C39.8535 27.9419 40.0916 28.0794 40.3296 28.1918C41.2193 28.5917 42.1716 28.5792 43.1614 28.1668C43.4998 28.0294 43.8005 27.8419 44.0511 27.6045L44.1012 27.5545H46.0684L46.0308 27.7545V27.717ZM49.8901 25.0553H45.1161V24.8928C45.1161 24.5055 45.041 24.1056 44.9282 23.7057L44.8906 23.5933L44.9908 23.5183C45.2289 23.3558 45.4294 23.1684 45.6048 22.9685C45.893 22.656 46.106 22.3062 46.2439 21.9188L46.2814 21.8063H49.8776C50.7672 21.8063 51.5065 22.5311 51.5065 23.4183C51.5065 24.3055 50.7798 25.0428 49.8776 25.0428L49.8901 25.0553Z" fill="#969995"/>
</svg>
