<svg width="41" height="44" viewBox="0 0 41 44" fill="none" xmlns="http://www.w3.org/2000/svg">
<path d="M38.4791 10.3338C38.2936 8.24693 36.4633 6.75985 34.1011 6.68487C34.0022 6.37245 33.8785 6.06004 33.7178 5.77262C33.1489 4.74791 32.2337 4.0731 30.997 3.76068C29.3892 3.3608 27.8062 4.0731 26.7921 5.5102C26.1861 5.22278 25.4936 5.06032 24.7392 5.03533C24.6402 4.72292 24.5166 4.4105 24.3558 4.12308C23.7869 3.09837 22.8717 2.42356 21.635 2.11115C19.5944 1.59879 17.5786 2.89843 16.75 5.17279C16.4037 5.17279 16.045 5.17279 15.6864 5.26027C15.0804 5.38523 14.5486 5.63516 14.0663 5.99756C14.0292 5.92258 13.9921 5.8476 13.955 5.77262C13.3861 4.74791 12.4709 4.0731 11.2342 3.76068C9.19362 3.24833 7.17776 4.54796 6.34916 6.82233C6.00288 6.82233 5.64423 6.82233 5.28558 6.9098C4.1478 7.14724 3.22026 7.80955 2.55243 8.90925C1.43939 10.7212 2.05775 13.0456 3.96229 14.5327C3.83862 14.8701 3.75205 15.22 3.71495 15.5824C3.59128 16.7446 3.93756 17.8318 4.76616 18.819C5.38452 19.5438 6.20076 19.9687 7.10356 20.0936L9.32966 36.5765H9.24309C7.82086 36.5765 6.65834 37.7387 6.65834 39.1758V39.4007C6.65834 40.8378 7.82086 42 9.24309 42H32.3079C33.7301 42 34.8926 40.8378 34.8926 39.4007V39.1758C34.8926 37.7387 33.7301 36.5765 32.3079 36.5765H32.2213L32.5676 33.9772C33.2602 33.8773 33.9527 33.6148 34.6329 33.19C35.6099 32.5776 36.2159 31.6904 36.3767 30.6032C36.7354 28.2039 34.8184 25.3547 33.8909 24.155L34.4845 19.7562C34.4845 19.7562 34.5464 19.7312 34.5835 19.7187C36.5251 18.894 37.3661 16.6446 36.6735 14.3202C36.958 14.1203 37.23 13.8829 37.4774 13.6079C38.2565 12.7332 38.5904 11.646 38.4791 10.3588V10.3338ZM30.6136 5.36024C31.4051 5.56018 31.9493 5.94757 32.2955 6.5724C32.7037 7.30969 32.7655 8.23443 32.7037 9.02171C31.9987 8.47187 31.1207 8.14696 30.1684 8.14696C30.1189 8.14696 30.0571 8.14696 30.0076 8.14696C29.7603 7.9845 29.3521 7.74707 28.8327 7.50964C28.6596 7.12225 28.4246 6.75985 28.1402 6.45993C28.7585 5.57268 29.6737 5.1228 30.6136 5.36024ZM28.1278 11.9209C28.6101 11.3836 28.9193 10.7587 29.0553 10.0589C29.3892 9.88397 29.7726 9.7965 30.1684 9.7965C31.5535 9.7965 32.6666 10.9337 32.6666 12.3208C32.6666 13.7079 31.5411 14.8451 30.1684 14.8451C28.7956 14.8451 27.6826 13.7329 27.6702 12.3583C27.831 12.2208 27.9794 12.0834 28.1278 11.9209ZM29.1172 17.9567C27.8928 18.694 26.5695 18.6315 25.8028 17.7193C26.6066 17.1944 27.1632 16.3822 27.4105 15.4199C27.5589 15.5574 27.732 15.6824 27.9052 15.8073C28.0783 16.2447 28.4864 17.1195 29.1172 17.9567ZM24.9989 6.69736C26.384 6.84732 27.3858 7.6596 27.4847 8.82177C27.5589 9.63404 27.361 10.2964 26.8911 10.8212C26.3345 11.446 25.4812 11.8084 24.7268 12.0084C24.8752 11.5835 24.9494 11.1336 24.9494 10.6588C24.9494 10.1589 24.8629 9.67153 24.7021 9.22166C24.8258 8.74679 25.0236 7.77206 24.9989 6.68487V6.69736ZM25.8151 13.3955C26.1367 14.7951 25.6667 16.0448 24.5784 16.5071C23.824 16.8195 23.1562 16.8445 22.5131 16.5571C21.7463 16.2197 21.1527 15.5074 20.7322 14.8451C20.7569 14.8451 20.7817 14.8451 20.8064 14.8451C21.7958 14.8451 22.6986 14.4952 23.4159 13.9078C23.8858 13.8704 24.8258 13.7579 25.8151 13.3955ZM18.3082 10.6588C18.3082 9.27164 19.4337 8.13446 20.8064 8.13446C22.1792 8.13446 23.3046 9.27164 23.3046 10.6588C23.3046 12.0459 22.1792 13.1831 20.8064 13.1831C19.4337 13.1831 18.3082 12.0459 18.3082 10.6588ZM19.7552 16.2947C18.5308 17.032 17.2076 16.9695 16.4408 16.0572C15.909 15.4324 15.6988 14.7951 15.773 14.0828C15.8595 13.2455 16.3542 12.4583 16.8489 11.8459C17.1334 12.7957 17.7393 13.5954 18.5432 14.1328C18.7164 14.5702 19.1245 15.4449 19.7552 16.2822V16.2947ZM21.2516 3.6982C22.0431 3.89815 22.5873 4.28554 22.9336 4.91036C23.3417 5.64766 23.4035 6.5724 23.3417 7.35968C22.6368 6.80983 21.7587 6.48492 20.8064 6.48492C20.7569 6.48492 20.6951 6.48492 20.6456 6.48492C20.2499 6.23499 19.4213 5.76013 18.4195 5.44771C19.0008 4.12308 20.1138 3.41078 21.2516 3.6982ZM14.3631 8.10947C14.796 7.40967 15.3277 7.00978 16.0203 6.85982C16.8365 6.68487 17.7393 6.9223 18.4566 7.20972C17.6651 7.75957 17.0715 8.58434 16.8118 9.53407C16.4532 9.84648 15.7482 10.4838 15.1546 11.3586C14.0787 10.3963 13.7447 9.10919 14.3631 8.09697V8.10947ZM14.2394 15.3699C14.4002 15.9948 14.7218 16.5821 15.1917 17.1444C15.1917 17.1444 15.2164 17.1694 15.2288 17.1819C15.0062 17.6193 14.6599 17.9567 14.19 18.1567C13.4356 18.4691 12.7677 18.4941 12.1246 18.2066C11.3579 17.8692 10.7642 17.1569 10.3438 16.4946C10.3685 16.4946 10.3932 16.4946 10.418 16.4946C11.4073 16.4946 12.3101 16.1447 13.0274 15.5574C13.2995 15.5324 13.7447 15.4824 14.2518 15.3824L14.2394 15.3699ZM10.4056 14.8326C9.02048 14.8326 7.90743 13.6954 7.90743 12.3083C7.90743 10.9212 9.03284 9.784 10.4056 9.784C11.7784 9.784 12.9038 10.9212 12.9038 12.3083C12.9038 13.6954 11.7784 14.8326 10.4056 14.8326ZM10.8508 5.34774C11.6423 5.54768 12.1865 5.93508 12.5328 6.5599C12.6812 6.83483 12.7925 7.13474 12.8543 7.44715C12.6441 7.83455 12.508 8.25943 12.4586 8.67181C11.8526 8.32191 11.16 8.12197 10.4056 8.12197C10.3561 8.12197 10.2943 8.12197 10.2448 8.12197C9.84908 7.87204 9.02048 7.39717 8.01873 7.08476C8.59999 5.76013 9.71304 5.04782 10.8508 5.33524V5.34774ZM4.75379 13.0206C3.67785 12.0584 3.34393 10.7712 3.96229 9.75901C4.39515 9.0592 4.92693 8.65932 5.6195 8.50936C6.43573 8.33441 7.33854 8.57184 8.05583 8.85926C7.26433 9.40911 6.67071 10.2339 6.411 11.1836C6.05235 11.496 5.34742 12.1333 4.75379 13.0081V13.0206ZM6.03998 17.7193C5.50819 17.0945 5.29795 16.4571 5.37215 15.7448C5.45872 14.9076 5.95341 14.1203 6.4481 13.508C6.73254 14.4577 7.33854 15.2575 8.1424 15.7948C8.31555 16.2322 8.72366 17.107 9.35439 17.9442C8.13004 18.6815 6.80675 18.619 6.03998 17.7068V17.7193ZM32.3079 38.1636C32.8397 38.1636 33.2849 38.6009 33.2849 39.1383V39.3632C33.2849 39.9006 32.8521 40.338 32.3079 40.338H9.26782C8.73603 40.338 8.29081 39.9006 8.29081 39.3632V39.1383C8.29081 38.6009 8.72366 38.1636 9.26782 38.1636H32.3079ZM31.1701 32.2777C31.0835 32.2527 30.997 32.2277 30.9104 32.2027C28.5977 31.4155 26.854 28.2288 26.1367 26.6793C27.0024 26.1419 27.5836 25.1797 27.5836 24.0925C27.5836 22.418 26.2356 21.0559 24.5784 21.0559C22.9212 21.0559 21.5732 22.418 21.5732 24.0925C21.5732 25.767 22.9212 27.1167 24.5784 27.1292C25.3204 28.7662 27.3734 32.7151 30.4157 33.7523C30.6012 33.8148 30.7867 33.8648 30.9722 33.9023L30.6136 36.5515H10.9745L8.73603 19.9812C9.34202 19.8312 9.94802 19.5563 10.5293 19.1689C10.8137 19.3813 11.1105 19.5688 11.4444 19.7187C11.9639 19.9562 12.508 20.0686 13.0522 20.0686C13.5963 20.0686 14.2147 19.9437 14.8083 19.6937C15.5627 19.3688 16.1563 18.844 16.5521 18.1692C17.0221 18.3691 17.5415 18.4691 18.0733 18.4691C19.0132 18.4691 20.0149 18.1567 20.9301 17.5193C21.2145 17.7318 21.5113 17.9192 21.8453 18.0692C22.3647 18.3066 22.9088 18.4191 23.453 18.4191C23.7003 18.4191 23.9477 18.3941 24.195 18.3441C24.294 18.4941 24.4176 18.6565 24.5413 18.8065C25.2833 19.6812 26.3222 20.1186 27.4352 20.1186C28.3751 20.1186 29.3769 19.8062 30.292 19.1689C30.5765 19.3813 30.8733 19.5688 31.2072 19.7187C31.7266 19.9562 32.2584 20.0686 32.815 20.0686L31.1701 32.2777ZM25.9635 24.08C25.9635 24.8548 25.3328 25.4921 24.566 25.4921C23.7993 25.4921 23.1685 24.8548 23.1685 24.08C23.1685 23.3052 23.7993 22.6679 24.566 22.6679C25.3328 22.6679 25.9635 23.3052 25.9635 24.08ZM34.7813 30.3283C34.6948 30.9406 34.3609 31.4155 33.7796 31.7654C33.4457 31.9778 33.1241 32.1278 32.7902 32.2277L33.557 26.5043C34.2867 27.704 34.9421 29.1786 34.769 30.3283H34.7813ZM33.9404 18.1567C33.186 18.4691 32.5181 18.4941 31.875 18.2066C31.1083 17.8692 30.5147 17.1569 30.0942 16.4946C30.1189 16.4946 30.1436 16.4946 30.1684 16.4946C31.1578 16.4946 32.0606 16.1447 32.7779 15.5574C33.2478 15.5199 34.1877 15.4074 35.1771 15.045C35.4986 16.4446 35.0287 17.6943 33.9404 18.1567ZM36.253 12.4708C35.6965 13.0956 34.8432 13.458 34.0888 13.6579C34.2372 13.233 34.3114 12.7832 34.3114 12.3083C34.3114 11.8084 34.2248 11.3211 34.064 10.8712C34.1877 10.3963 34.3856 9.4216 34.3609 8.33441C35.746 8.48436 36.7477 9.29664 36.8467 10.4588C36.9209 11.2711 36.723 11.9334 36.253 12.4583V12.4708Z" fill="#969995"/>
</svg>
