<svg width="30" height="44" viewBox="0 0 30 44" fill="none" xmlns="http://www.w3.org/2000/svg">
<path d="M8.88293 18.5041C9.1814 17.2419 10.0892 16.542 11.1215 15.9171C8.83319 15.6046 6.56979 15.2797 4.29395 14.9673C4.29395 14.9548 4.29395 14.9298 4.29395 14.9173C6.50761 14.9173 8.7337 14.9673 10.9474 14.9923C11.0966 14.9923 11.1712 14.9548 11.1712 14.7798C11.1836 14.3424 11.308 13.9424 11.4448 13.53C11.507 13.3675 11.6811 13.2051 11.6065 13.0301C11.5319 12.8676 11.3329 12.7926 11.1712 12.6802C8.14919 10.4306 4.33126 12.1428 2.00568 14.6423C1.85644 15.4422 4.69191 17.7668 5.48783 18.1167C6.09721 18.4791 8.53472 19.379 8.87049 18.5041H8.88293Z" fill="#969995"/>
<path d="M13.4471 11.1179C14.0316 10.718 14.6907 10.493 15.3871 10.393C15.6856 10.2805 15.5488 9.75563 15.6483 9.48068C15.8721 7.75599 16.096 6.03129 16.3323 4.31909H16.382C16.382 6.26875 16.3447 8.2184 16.3198 10.1681C16.3198 10.343 16.3696 10.418 16.5437 10.443C17.0411 10.4055 17.5386 10.9554 17.9863 10.7305C18.3345 10.368 19.0061 10.4305 19.2548 10.0056C20.4238 7.0936 18.6827 4.05664 16.6805 2.0195C15.9965 1.73205 13.646 4.70652 13.3227 5.4189C12.2781 7.28107 12.3402 9.15574 13.2232 11.0429C13.273 11.1554 13.3351 11.1929 13.4471 11.1179Z" fill="#969995"/>
<path d="M26.5424 20.7538H25.0127C25.7092 19.429 25.6097 17.7543 24.8013 16.467C24.7143 16.317 24.7018 16.1921 24.764 16.0296C25.2615 14.6923 24.764 13.3176 23.8189 12.2553C22.4136 10.6055 19.8766 9.7807 18.0111 11.2054C17.8743 11.3054 17.7624 11.2929 17.6132 11.2179C14.7155 9.55574 10.7359 12.8177 11.6935 16.0546C11.7433 16.2171 11.6562 16.2421 11.5443 16.2795C9.51716 16.792 8.75855 19.0291 9.41767 20.7538H5.0028C4.48048 20.7538 4.04521 21.1912 4.04521 21.7286V41.0252C4.04521 41.5626 4.46804 42 5.0028 42H26.5424C27.0647 42 27.5 41.5626 27.5 41.0252V21.7286C27.5 21.1912 27.0772 20.7538 26.5424 20.7538ZM12.5143 23.1783C12.4521 22.9909 12.477 22.9534 12.676 22.9534C13.0739 22.9659 13.4595 22.8534 13.8201 22.7284C13.9693 22.6659 14.0813 22.6784 14.2181 22.7909C15.698 24.1282 17.9116 24.2031 19.5781 23.1658C18.919 26.7652 13.3227 26.6402 12.5143 23.1658V23.1783ZM15.0264 21.8661C13.3102 20.3413 13.646 17.2544 15.5488 16.0421C14.5165 17.7793 14.3549 20.5038 16.4317 21.4411C18.5459 22.3035 20.4859 19.4415 19.006 17.6793C18.8817 17.4918 18.8941 17.4668 19.1055 17.4418C20.5108 17.1544 21.7171 18.7416 21.1575 20.0539C20.2621 22.3785 16.9416 23.6907 15.014 21.8661H15.0264ZM17.551 18.2792C17.9987 17.8793 18.0609 17.8918 18.1977 18.3167C18.3593 18.7791 18.3967 19.254 18.2474 19.7414C18.0857 20.2913 17.638 20.5038 17.1157 20.3038C16.6183 19.8664 17.2152 18.5666 17.551 18.2667V18.2792ZM20.9958 22.0035C25.3361 17.7418 18.5459 13.0926 16.0213 18.5541C16.0213 15.7796 19.69 13.73 21.9534 15.3672C25.162 17.0919 25.0252 21.9785 20.9958 21.991V22.0035ZM19.0185 12.0053C21.0083 11.2179 23.6821 12.8552 23.7194 15.0798C22.6872 14.0299 21.3814 13.5175 20.0009 13.3051C19.6652 12.9051 19.3542 12.4802 18.9438 12.1553C18.8195 12.0553 18.9438 12.0303 19.006 12.0053H19.0185ZM18.434 13.3301C16.0711 13.6425 14.3922 14.9548 13.1734 16.9794C11.395 13.6175 16.0462 10.3181 18.434 13.3301ZM12.8874 17.1044C13.1237 17.1044 13.1486 17.1419 13.0491 17.3544C12.7257 18.1042 12.564 18.8916 12.6511 19.7164C12.7133 20.3163 12.8998 20.8662 13.1734 21.3911C13.3102 21.6536 13.2978 21.6911 12.9869 21.7161C12.1537 21.7661 11.4448 21.4911 11.022 21.0412C9.41767 19.2665 10.8354 17.0294 12.875 17.1044H12.8874ZM12.5392 40.0503H5.96039V33.8264H12.5392V40.0503ZM5.96039 31.8893V22.6909H11.2209C11.2209 22.6909 11.2458 22.7534 11.2582 22.7909C11.3826 23.9657 11.8676 24.878 12.5516 25.5654V31.8768H5.96039V31.8893ZM17.1033 40.0503H14.4544V33.8264H17.1033V40.0503ZM14.4544 31.8893V26.7277C15.3 27.0027 16.2203 27.0526 17.1033 26.8652V31.8893H14.4544ZM25.5973 40.0503H19.0185V33.8264H25.5973V40.0503ZM25.5973 31.8893H19.0185V26.0028C19.802 25.4154 20.4362 24.5781 20.7347 23.4533C20.7844 23.2783 20.8715 23.2033 21.0456 23.1908C21.7171 23.1283 22.3389 22.9659 22.911 22.6909H25.5973V31.8893Z" fill="#969995"/>
</svg>
