<svg width="26" height="44" viewBox="0 0 26 44" fill="none" xmlns="http://www.w3.org/2000/svg">
<path d="M23.4945 7.1334C23.4456 6.52294 22.917 6.09261 22.2513 6.07259C22.222 5.98253 22.1926 5.89246 22.1437 5.80239C21.9773 5.50216 21.7227 5.31201 21.3703 5.22194C20.783 5.07183 20.2153 5.45212 19.9803 6.11262C19.8824 6.11262 19.7748 6.11262 19.6769 6.13264C19.3538 6.20269 19.0895 6.39284 18.8938 6.71308C18.5805 7.23348 18.7567 7.914 19.2951 8.34433C19.2657 8.4444 19.2364 8.54448 19.2266 8.64456C19.2266 8.66457 19.2266 8.67458 19.2266 8.69459C18.9721 8.60453 18.698 8.55449 18.4043 8.54448C18.3554 8.37435 18.2869 8.21423 18.2085 8.06411C17.9149 7.5237 17.4352 7.16343 16.799 7.0033C16.1529 6.84318 15.5166 7.02332 15.0174 7.47366C15.0174 7.25349 14.9782 7.03333 14.9097 6.81316C15.037 6.72309 15.1544 6.61301 15.2621 6.49291C15.6047 6.09261 15.7613 5.60223 15.7124 5.02179C15.6341 4.08107 14.8216 3.40056 13.7742 3.37053C13.735 3.23043 13.6763 3.09032 13.6078 2.96022C13.3533 2.49987 12.9519 2.18963 12.394 2.04952C11.4836 1.81935 10.5928 2.4098 10.2208 3.44059C10.0642 3.44059 9.90759 3.44059 9.75097 3.48062C9.24195 3.5907 8.83082 3.89093 8.53715 4.3813C8.04771 5.20193 8.32179 6.25273 9.16364 6.92324C9.11469 7.07336 9.07554 7.23348 9.05596 7.3936C9.0168 7.80391 9.09511 8.18421 9.31047 8.54448C8.43926 8.38436 7.59742 8.9648 7.24502 9.95556C7.0884 9.95556 6.93178 9.95556 6.77515 9.99559C6.26613 10.1057 5.855 10.4059 5.56134 10.8963C5.07189 11.7169 5.34598 12.7677 6.18782 13.4382C6.13888 13.5883 6.09972 13.7484 6.08014 13.9086C6.08014 13.9586 6.08014 14.0086 6.08014 14.0587C5.91373 13.9786 5.71796 13.9386 5.51239 13.9286C5.48302 13.8385 5.45366 13.7484 5.40471 13.6584C5.2383 13.3582 4.98379 13.168 4.63139 13.0779C4.04406 12.9278 3.47631 13.3081 3.24137 13.9686C3.14349 13.9686 3.03581 13.9686 2.93792 13.9886C2.61489 14.0587 2.35059 14.2488 2.15481 14.5691C1.84157 15.0895 2.01777 15.77 2.55615 16.2003C2.52679 16.3004 2.49742 16.4005 2.48763 16.5005C2.44848 16.8408 2.55615 17.151 2.79109 17.4413C3.00644 17.6915 3.30011 17.8216 3.61335 17.8216C3.88744 17.8216 4.17132 17.7315 4.42583 17.5413C4.50414 17.6014 4.59224 17.6614 4.69013 17.7015C4.83696 17.7715 4.99358 17.8015 5.1502 17.8015C5.30682 17.8015 5.48302 17.7615 5.64944 17.6915C6.2074 17.4513 6.44233 16.8008 6.24656 16.1203C6.32487 16.0602 6.40318 15.9902 6.4717 15.9101C6.57938 15.79 6.65769 15.6499 6.70663 15.4998C7.01988 15.79 7.42122 15.9401 7.84214 15.9401C7.9694 15.9401 8.08686 15.9301 8.21412 15.9001C8.93849 17.4313 9.94675 19.9832 9.94675 22.2349C9.94675 24.6568 9.51604 25.6175 9.23216 26.248C9.08533 26.5782 8.95807 26.8685 8.95807 27.2287C8.95807 27.549 9.08533 28.1494 9.97611 28.5097C10.1719 28.5898 10.3579 28.6398 10.5047 28.6798L10.583 28.7899C10.4264 28.9901 10.2894 29.2403 10.2894 29.5205C10.2894 29.8507 10.4068 30.4612 11.278 30.8715C11.3857 30.9215 11.4934 30.9616 11.5913 31.0016V32.4427C10.9158 32.6329 10.1229 33.1232 10.1229 34.184C10.1229 35.505 10.818 36.2456 11.3466 36.6259C11.278 36.8261 11.2291 37.0562 11.2291 37.3264C11.2291 37.6567 11.3466 37.9169 11.5032 38.127C11.3074 38.1871 11.0823 38.2571 10.8571 38.3572C9.8097 38.8276 9.24195 39.6182 9.24195 40.5989V40.729L9.29089 40.8491C9.42794 41.1594 10.0348 41.8599 12.6191 41.98V42H13.1966C13.1966 42 13.2554 42 13.2847 42H13.2945H13.3043C13.3337 42 13.3631 42 13.3924 42H13.97V41.98C16.5542 41.8599 17.1611 41.1594 17.2982 40.8491L17.3471 40.729V40.5989C17.3471 39.6182 16.7696 38.8276 15.732 38.3572C15.5068 38.2571 15.2915 38.1871 15.0859 38.127C15.2425 37.9169 15.36 37.6567 15.36 37.3264C15.36 37.0562 15.311 36.8261 15.2425 36.6259C15.7711 36.2456 16.4661 35.505 16.4661 34.184C16.4661 33.1232 15.683 32.6329 14.9978 32.4427V31.0016C15.0957 30.9716 15.2034 30.9215 15.311 30.8715C16.1823 30.4612 16.2997 29.8507 16.2997 29.5205C16.2997 29.2303 16.1627 28.9801 16.0061 28.7899L16.0844 28.6798C16.2312 28.6498 16.427 28.5898 16.613 28.5097C17.494 28.1494 17.631 27.549 17.631 27.2287C17.631 26.8685 17.5037 26.5882 17.3569 26.248C17.073 25.6175 16.6423 24.6568 16.6423 22.2349C16.6423 19.8131 17.8953 16.8508 18.6001 15.4197C18.6099 15.4197 18.6295 15.4097 18.6393 15.3997C19.6475 14.9694 20.088 13.7685 19.7258 12.5475C19.8727 12.4374 20.0195 12.3174 20.1467 12.1773C20.5481 11.7169 20.7243 11.1365 20.6656 10.4559C20.646 10.2658 20.6068 10.0957 20.5481 9.92553C20.7537 9.89551 20.969 9.80544 21.1648 9.66533C21.2431 9.72538 21.3312 9.78543 21.4291 9.82546C21.5759 9.89551 21.7325 9.92553 21.8892 9.92553C22.0458 9.92553 22.222 9.8855 22.3884 9.81545C22.9464 9.57527 23.1813 8.92477 22.9855 8.24425C23.0638 8.1842 23.1421 8.11415 23.2107 8.03409C23.4358 7.7839 23.5239 7.46365 23.4945 7.09337V7.1334ZM21.2529 5.6923C21.478 5.75235 21.6346 5.86243 21.7325 6.04257C21.85 6.25273 21.8696 6.52294 21.85 6.75311C21.6542 6.59299 21.3997 6.50292 21.1256 6.50292C21.1061 6.50292 21.0963 6.50292 21.0767 6.50292C20.9592 6.43287 20.7243 6.29276 20.4404 6.20269C20.6068 5.8224 20.9201 5.61224 21.2529 5.6923ZM21.8402 7.71385C21.8402 8.11415 21.5172 8.4444 21.1256 8.4444C20.7341 8.4444 20.411 8.11415 20.411 7.71385C20.411 7.31354 20.7341 6.98329 21.1256 6.98329C21.5172 6.98329 21.8402 7.31354 21.8402 7.71385ZM19.2853 6.97328C19.4028 6.77313 19.5594 6.65304 19.7552 6.61301C19.9901 6.56297 20.2446 6.63302 20.4502 6.71308C20.2251 6.8732 20.0586 7.11339 19.9803 7.3936C19.8727 7.48367 19.6769 7.67382 19.5105 7.92401C19.207 7.64379 19.1091 7.27351 19.2853 6.97328ZM16.5836 7.86396C16.9947 7.96404 17.2786 8.1742 17.4548 8.50445C17.6702 8.89475 17.6995 9.38512 17.6702 9.79543C17.308 9.50521 16.8479 9.33508 16.3585 9.33508C16.3291 9.33508 16.2997 9.33508 16.2704 9.33508C16.0648 9.20498 15.6341 8.95479 15.1153 8.78466C15.4187 8.08413 15.9963 7.70384 16.5836 7.85395V7.86396ZM15.0565 11.5468C15.0565 10.8162 15.6439 10.2158 16.3585 10.2158C17.073 10.2158 17.6604 10.8162 17.6604 11.5468C17.6604 12.2773 17.073 12.8778 16.3585 12.8778C15.6439 12.8778 15.0565 12.2773 15.0565 11.5468ZM15.8103 14.529C15.174 14.9193 14.4888 14.8793 14.0874 14.409C13.8133 14.0787 13.6959 13.7384 13.735 13.3682C13.784 12.9278 14.0287 12.5075 14.293 12.1873C14.4398 12.6876 14.7531 13.118 15.174 13.3982C15.2621 13.6284 15.4775 14.0887 15.8103 14.5391V14.529ZM15.1446 9.72538C14.7335 10.0156 14.43 10.4459 14.293 10.9563C14.107 11.1164 13.7448 11.4567 13.4316 11.9171C12.8736 11.4067 12.6974 10.7261 13.0204 10.1957C13.2456 9.82546 13.5197 9.6153 13.8819 9.53524C14.3028 9.44517 14.7727 9.56526 15.1446 9.72538ZM9.00702 14.3389C9.00702 14.3389 9.02659 14.3389 9.03638 14.3389C9.47688 14.3389 9.87822 14.1788 10.1915 13.9186C10.397 13.8986 10.818 13.8485 11.2585 13.6884C11.3955 14.3289 11.1899 14.8893 10.7103 15.0995C10.3775 15.2396 10.074 15.2496 9.79012 15.1195C9.44751 14.9694 9.18321 14.6491 8.99723 14.3389H9.00702ZM7.93024 12.4475C7.93024 11.817 8.42947 11.3066 9.04617 11.3066C9.66287 11.3066 10.1621 11.817 10.1621 12.4475C10.1621 13.0779 9.66287 13.5883 9.04617 13.5883C8.42947 13.5883 7.93024 13.0779 7.93024 12.4475ZM11.0137 7.50369C11.092 7.70384 11.2682 8.09414 11.5521 8.47443C11.0039 8.80468 10.4166 8.77465 10.074 8.36434C9.83907 8.08413 9.74118 7.79391 9.77055 7.47366C9.8097 7.09337 10.0251 6.7331 10.2502 6.46289C10.3775 6.89322 10.6515 7.25349 11.0039 7.49368L11.0137 7.50369ZM10.9158 5.92248C10.9158 5.292 11.4151 4.78161 12.0318 4.78161C12.6485 4.78161 13.1477 5.292 13.1477 5.92248C13.1477 6.55296 12.6485 7.06335 12.0318 7.06335C11.4151 7.06335 10.9158 6.55296 10.9158 5.92248ZM12.0807 9.02485C12.208 9.12492 12.3352 9.20498 12.4821 9.27504C12.5212 9.29505 12.5604 9.30506 12.5995 9.32507C12.4918 9.44517 12.3842 9.58527 12.2961 9.73539C12.1786 9.92553 12.1003 10.1257 12.0611 10.3258C11.7283 10.0656 11.2878 9.90552 10.7886 9.89551C10.7494 9.7554 10.6907 9.6153 10.6222 9.4852C10.6222 9.47519 10.6026 9.45517 10.5928 9.44517C10.6613 9.44517 10.7396 9.45517 10.8082 9.45517C11.2291 9.45517 11.6696 9.31507 12.0807 9.02485ZM10.7886 13.0579C10.8473 12.8678 10.8865 12.6576 10.8865 12.4475C10.8865 12.2173 10.8473 11.9971 10.7788 11.797C10.8277 11.5868 10.9256 11.1465 10.9061 10.6461C11.5228 10.7161 11.9633 11.0864 12.0122 11.6068C12.0416 11.9771 11.9535 12.2673 11.7479 12.5075C11.5032 12.7877 11.1214 12.9578 10.7886 13.0479V13.0579ZM12.0122 13.6884C11.9926 13.5783 11.973 13.4582 11.9339 13.3381C12.0611 13.2481 12.1786 13.138 12.2863 13.0179C12.4625 12.8177 12.58 12.5976 12.6583 12.3574C12.7659 12.4775 12.8932 12.5976 13.0302 12.7077C12.9715 12.8878 12.9226 13.0679 12.903 13.2581C12.8834 13.3982 12.8834 13.5483 12.903 13.6784H12.0122V13.6884ZM13.8917 4.13111C14.5084 4.20117 14.9489 4.57145 14.9978 5.09185C15.0272 5.46213 14.9391 5.75235 14.7335 5.99253C14.4888 6.27275 14.107 6.44288 13.7742 6.53295C13.8329 6.3428 13.8721 6.13264 13.8721 5.92248C13.8721 5.6923 13.8329 5.47214 13.7644 5.27198C13.8133 5.06182 13.9112 4.62149 13.8917 4.12111V4.13111ZM14.2538 7.16343C14.3909 7.80391 14.1853 8.36434 13.7057 8.5745C13.3728 8.71461 13.0694 8.72462 12.7855 8.59452C12.4429 8.4444 12.1786 8.12416 11.9926 7.81392C12.0024 7.81392 12.0122 7.81392 12.022 7.81392C12.4625 7.81392 12.8638 7.6538 13.1771 7.3936C13.3826 7.37359 13.8036 7.32355 14.2441 7.16343H14.2538ZM12.208 2.77007C12.5604 2.86014 12.8051 3.04028 12.9519 3.32049C13.1379 3.65075 13.1575 4.07107 13.1379 4.43134C12.8247 4.18115 12.4331 4.03104 12.0122 4.03104C11.9828 4.03104 11.9633 4.03104 11.9339 4.03104C11.7577 3.92095 11.3857 3.70078 10.9452 3.56068C11.1997 2.96022 11.699 2.63998 12.208 2.77007ZM9.15385 4.7716C9.33984 4.45136 9.58456 4.27122 9.88801 4.21117C10.2502 4.13111 10.6515 4.2412 10.9746 4.3713C10.6222 4.62149 10.3579 4.99177 10.2404 5.4221C10.0838 5.5622 9.77055 5.85243 9.50625 6.24272C9.02659 5.8124 8.87976 5.22194 9.15385 4.7716ZM9.23216 9.29505C9.58456 9.38512 9.82928 9.56526 9.97611 9.84547C10.1621 10.1757 10.1817 10.596 10.1621 10.9563C9.84886 10.7061 9.4573 10.556 9.03638 10.556C9.00701 10.556 8.98744 10.556 8.95807 10.556C8.78187 10.4459 8.40989 10.2258 7.9694 10.0857C8.22391 9.4852 8.72314 9.16495 9.23216 9.29505ZM4.48456 13.5483C4.7097 13.6083 4.86633 13.7184 4.96421 13.8986C5.08168 14.1087 5.10126 14.3789 5.08168 14.6091C4.8859 14.449 4.63139 14.3589 4.35731 14.3589C4.33773 14.3589 4.32794 14.3589 4.30836 14.3589C4.19089 14.2889 3.95596 14.1488 3.67208 14.0587C3.8385 13.6784 4.15174 13.4682 4.48456 13.5483ZM5.07189 15.5698C5.07189 15.9701 4.74886 16.3004 4.35731 16.3004C3.96575 16.3004 3.64272 15.9701 3.64272 15.5698C3.64272 15.1695 3.96575 14.8393 4.35731 14.8393C4.74886 14.8393 5.07189 15.1695 5.07189 15.5698ZM2.74214 15.78C2.43869 15.4998 2.3408 15.1295 2.517 14.8293C2.63447 14.6291 2.79109 14.509 2.98686 14.469C3.2218 14.419 3.47631 14.489 3.68187 14.5691C3.45673 14.7292 3.29032 14.9694 3.21201 15.2496C3.10433 15.3397 2.90855 15.5298 2.74214 15.78ZM3.10433 17.141C2.9575 16.9609 2.88898 16.7708 2.90855 16.5706C2.93792 16.3304 3.07496 16.1002 3.21201 15.9201C3.29032 16.2003 3.46652 16.4305 3.69166 16.5806C3.74061 16.7107 3.85807 16.9609 4.03427 17.2011C3.68187 17.4112 3.3099 17.3912 3.08475 17.131L3.10433 17.141ZM5.43408 17.2711C5.21873 17.3612 5.02295 17.3712 4.84675 17.2811C4.63139 17.1811 4.45519 16.9809 4.33773 16.7808C4.33773 16.7808 4.34752 16.7808 4.35731 16.7808C4.64118 16.7808 4.89569 16.6807 5.10126 16.5106C5.2383 16.5005 5.5026 16.4705 5.78648 16.3604C5.87458 16.7708 5.74732 17.131 5.43408 17.2611V17.2711ZM6.08993 15.6199C5.93331 15.8 5.68859 15.9101 5.47324 15.9701C5.51239 15.8501 5.53197 15.72 5.53197 15.5798C5.53197 15.4297 5.5026 15.2896 5.46345 15.1595C5.5026 15.0194 5.55155 14.7392 5.55155 14.419C5.81585 14.449 6.0312 14.5591 6.14867 14.7392C6.17803 14.8193 6.2074 14.8893 6.24656 14.9694C6.24656 14.9894 6.24656 15.0194 6.25634 15.0394C6.27592 15.2796 6.21719 15.4698 6.08993 15.6199ZM6.51085 12.7677C6.0312 12.3374 5.88437 11.7469 6.15846 11.2966C6.34444 10.9763 6.58917 10.7962 6.89262 10.7362C7.25481 10.6561 7.65615 10.7662 7.97918 10.8963C7.62679 11.1465 7.36249 11.5167 7.24502 11.9471C7.0884 12.0872 6.77515 12.3774 6.51085 12.7677ZM7.07861 14.8893C6.84368 14.6091 6.74579 14.3189 6.77515 13.9986C6.81431 13.6184 7.02966 13.2581 7.25481 12.9879C7.38206 13.4182 7.65615 13.7785 8.00855 14.0187C8.08686 14.2188 8.26306 14.6091 8.54694 14.9894C7.99876 15.3196 7.41143 15.2896 7.06882 14.8793L7.07861 14.8893ZM15.4677 22.2649C15.4677 24.947 15.9767 26.0979 16.2899 26.7784C16.3878 26.9886 16.4563 27.1587 16.4661 27.2487C16.4074 27.3488 16.0256 27.519 15.6732 27.569L15.4187 27.599L14.7531 28.5397L14.4007 29.0401L14.8999 29.3904C14.9782 29.4504 15.0761 29.5405 15.1251 29.6105C15.0663 29.7206 14.7041 29.9108 14.3224 29.9808L13.8329 30.0609V33.5436L14.3811 33.5736C14.4203 33.5736 15.2915 33.6336 15.2915 34.2141C15.2915 34.7244 15.1251 35.1548 14.7922 35.485C14.5377 35.7352 14.2832 35.8453 14.2538 35.8553L13.3826 36.1355L14.0091 36.816C14.0091 36.816 14.1951 37.0662 14.1951 37.3565C14.1951 37.4265 14.0679 37.5066 14.0091 37.5366L13.6371 37.6667V39.1378L14.1657 39.1879C14.1657 39.1879 15.8984 39.378 16.1431 40.3888C15.8788 40.5389 15.1446 40.8191 13.3631 40.8391H13.275H13.2554H13.1771C11.3955 40.8191 10.6613 40.5389 10.397 40.3888C10.6418 39.368 12.3548 39.1879 12.3744 39.1879L12.903 39.1378V38.087L12.9226 37.6667L12.5408 37.5266C12.4821 37.4966 12.3548 37.4165 12.3548 37.3465C12.3548 37.0562 12.5114 36.8361 12.531 36.806L13.1575 36.1455L12.2863 35.8553C12.2863 35.8553 11.9926 35.7352 11.7381 35.485C11.4053 35.1548 11.2389 34.7244 11.2389 34.2141C11.2389 33.6336 12.1101 33.5736 12.1492 33.5736L12.7072 33.5436V30.0609L12.2178 29.9708C11.836 29.9008 11.4738 29.7106 11.4151 29.6005C11.4542 29.5405 11.5521 29.4404 11.6402 29.3904L12.1395 29.0401L11.1116 27.599L10.8571 27.569C10.5439 27.529 10.1327 27.3688 10.0642 27.2487C10.0642 27.1487 10.1425 26.9886 10.2404 26.7784C10.5439 26.0979 11.0627 24.947 11.0627 22.2649C11.0627 19.9332 10.1229 17.4012 9.37899 15.75C9.40836 15.77 9.43773 15.78 9.46709 15.8C9.70202 15.9101 9.93696 15.9601 10.1817 15.9601C10.4264 15.9601 10.7005 15.9001 10.9648 15.79C11.2682 15.6599 11.5032 15.4598 11.6794 15.1996H13.6371C13.9993 15.5098 14.4398 15.6699 14.9195 15.6699C15.4089 15.6699 15.9277 15.4998 16.3976 15.1695C16.5444 15.2796 16.7011 15.3797 16.8675 15.4598C16.9849 15.5098 17.1024 15.5498 17.2199 15.5798C16.4563 17.2311 15.4579 19.8531 15.4579 22.275L15.4677 22.2649ZM18.3064 14.6291C17.9149 14.7993 17.5625 14.8093 17.2394 14.6491C16.8381 14.469 16.5347 14.0987 16.3095 13.7384C16.3193 13.7384 16.3389 13.7384 16.3487 13.7384C16.8577 13.7384 17.3275 13.5583 17.6995 13.2481C17.9442 13.2281 18.4337 13.168 18.9427 12.9779C19.1091 13.7184 18.8644 14.3789 18.3064 14.6191V14.6291ZM19.5007 11.6168C19.2168 11.9471 18.7665 12.1372 18.375 12.2473C18.4533 12.0271 18.4924 11.787 18.4924 11.5368C18.4924 11.2666 18.4435 11.0164 18.3652 10.7762C18.4239 10.526 18.5316 10.0156 18.5218 9.43516C19.2364 9.51522 19.7552 9.94555 19.8139 10.556C19.8531 10.9863 19.7552 11.3366 19.5105 11.6068L19.5007 11.6168ZM20.2936 9.4952C20.137 9.27504 19.9314 9.08489 19.6965 8.93478C19.6769 8.86472 19.6769 8.78466 19.6867 8.7046C19.716 8.46442 19.8531 8.23424 19.9901 8.05411C20.0684 8.33432 20.2446 8.56449 20.4698 8.71461C20.5187 8.84471 20.6362 9.0949 20.8124 9.33508C20.6362 9.44517 20.4502 9.4952 20.2838 9.47519L20.2936 9.4952ZM22.1926 9.40514C21.9773 9.4952 21.7815 9.50521 21.6053 9.41514C21.3899 9.31507 21.2137 9.11491 21.0963 8.91476C21.0963 8.91476 21.1061 8.91476 21.1158 8.91476C21.3997 8.91476 21.6542 8.81469 21.8598 8.64456C21.9968 8.63455 22.2611 8.60453 22.545 8.49444C22.6331 8.90475 22.5059 9.26503 22.1926 9.39513V9.40514ZM22.8485 7.75388C22.6918 7.93401 22.4471 8.0441 22.2318 8.10414C22.2709 7.98405 22.2905 7.85395 22.2905 7.71385C22.2905 7.56373 22.2611 7.42362 22.222 7.29353C22.2611 7.15342 22.3101 6.8732 22.3101 6.55296C22.7016 6.59299 22.9855 6.83317 23.0149 7.17343C23.0345 7.41362 22.9757 7.60376 22.8485 7.75388Z" fill="#969995"/>
</svg>
