<svg width="23" height="40" viewBox="0 0 23 40" fill="none" xmlns="http://www.w3.org/2000/svg">
<path d="M14.3285 8.85943C14.3285 7.1981 13.015 5.84905 11.3853 5.84905C9.7556 5.84905 8.44211 7.1981 8.44211 8.85943C8.44211 10.5208 9.7556 11.8698 11.3853 11.8698C13.015 11.8698 14.3285 10.5208 14.3285 8.85943ZM10.2056 8.85943C10.2056 8.1974 10.7407 7.64778 11.3853 7.64778C12.0299 7.64778 12.565 8.18491 12.565 8.85943C12.565 9.53396 12.0299 10.0711 11.3853 10.0711C10.7407 10.0711 10.2056 9.53396 10.2056 8.85943Z" fill="#969995"/>
<path d="M22.0027 17.3035C17.819 16.7788 15.0704 18.4402 13.5137 19.9266C13.3434 20.089 13.1853 20.2514 13.0272 20.4138C12.9056 19.3395 12.5529 18.3402 12.2245 17.5908C13.088 17.4034 13.8785 16.9412 14.3528 16.1917C16.6636 16.6664 19.0109 14.2056 18.5487 11.8823C20.4825 10.5832 20.4825 7.09813 18.5487 5.79905C19.0109 3.47568 16.6636 1.0274 14.3528 1.48958C13.088 -0.496526 9.68265 -0.496526 8.41781 1.48958C6.10703 1.01491 3.75977 3.46319 4.22193 5.79905C2.28818 7.09813 2.28818 10.5832 4.22193 11.8823C3.75977 14.2056 6.10703 16.6539 8.41781 16.1917C8.83131 16.8413 9.46373 17.266 10.1813 17.5033C10.4853 18.0529 11.288 19.6518 11.288 21.2257C11.288 21.9627 10.984 22.7621 10.5948 23.7739C10.0597 25.1479 9.42725 26.8218 9.24482 29.1202C9.17185 28.9703 9.08671 28.8204 8.98942 28.6705C7.88268 26.7968 5.69353 24.4235 1.52197 23.7489L0.524692 23.5865L0.500368 24.6233C0.500368 24.8357 0.403073 29.7072 3.37059 32.2929C4.53814 33.3172 5.99758 33.8293 7.72457 33.8293C8.30835 33.8293 8.91645 33.7669 9.54887 33.6545C10.2543 36.9022 11.7259 39.4254 11.811 39.5628C11.9813 39.8501 12.2731 40 12.565 40C12.7231 40 12.8812 39.9625 13.0272 39.8626C13.4407 39.6003 13.5745 39.0382 13.3191 38.6135C13.2948 38.576 10.9597 34.5913 10.9597 30.4567C10.9597 27.9835 11.5434 26.2846 12.1029 24.7982C13.2461 25.3103 14.3407 25.5602 15.3866 25.5602C16.2744 25.5602 17.1258 25.3728 17.9285 24.998C21.4676 23.3492 22.696 18.6275 22.7446 18.4277L23 17.4284L22.0027 17.3035ZM4.52598 30.9189C2.94492 29.5449 2.47061 27.1715 2.33682 25.785C4.57463 26.3846 6.28946 27.6462 7.43269 29.5573C7.97998 30.4692 8.28402 31.3561 8.45429 31.9806C6.83675 32.1305 5.5111 31.7808 4.52598 30.9189ZM6.97053 10.7331C3.72329 11.3451 3.72329 6.36115 6.97053 6.98571C4.24625 5.06207 7.70025 1.55203 9.56103 4.33758C8.96509 1.01491 13.8177 1.01491 13.2218 4.33758C15.0826 1.55203 18.5244 5.07456 15.8123 6.98571C19.0595 6.37364 19.0474 11.3576 15.8123 10.7331L16.3596 11.2952C18.1352 13.3937 14.5474 15.792 13.2218 13.3812C13.8177 16.7039 8.96509 16.7039 9.56103 13.3812C7.70025 16.1668 4.25841 12.6442 6.97053 10.7331ZM17.1866 23.3492C16.0069 23.8988 14.6447 23.8613 13.1245 23.2618C13.4529 22.7122 13.9758 21.9377 14.7542 21.2132C16.3717 19.7018 18.3541 18.9648 20.6649 19.0272C20.1541 20.3263 19.0595 22.4748 17.1866 23.3492Z" fill="#969995"/>
</svg>
