<svg width="515" height="400" viewBox="0 0 515 400" fill="none" xmlns="http://www.w3.org/2000/svg">
<path d="M512.241 348.799L444.109 309.477C442.67 308.646 440.831 309.139 440.001 310.577L414.394 354.913C413.564 356.351 414.057 358.189 415.495 359.019L483.627 398.342C485.066 399.172 486.905 398.679 487.735 397.242L513.342 352.905C514.172 351.468 513.679 349.629 512.241 348.799Z" fill="#D92B3E"/>
<path d="M509.708 359.2L436.367 316.871L430.117 327.694L503.457 370.022L509.708 359.2Z" fill="#B7BAB5"/>
<path d="M454.572 329.623L435.173 318.427L438.646 312.414C439.563 310.826 441.519 310.225 442.995 311.077L457.721 319.576C456.863 322.982 455.811 326.336 454.572 329.623Z" fill="#DC616E"/>
<path d="M448.818 340.732C447.502 342.999 446.06 345.192 444.499 347.298C438.99 354.722 431.787 361 423.746 365.062L414.35 359.639C412.874 358.787 412.419 356.789 413.334 355.206L428.474 328.991L448.818 340.732Z" fill="#DC616E"/>
<path d="M449.651 339.29L429.307 327.548L435.142 317.446L454.658 328.71C453.249 332.354 451.575 335.889 449.651 339.29Z" fill="#EEF0EC"/>
<path fill-rule="evenodd" clip-rule="evenodd" d="M414.864 360.103L483.002 399.429C483.981 399.994 485.144 400.147 486.235 399.855C487.326 399.563 488.257 398.849 488.822 397.871L514.429 353.533C514.994 352.555 515.147 351.392 514.855 350.301C514.562 349.21 513.848 348.28 512.87 347.715L444.731 308.389C443.752 307.825 442.59 307.671 441.498 307.964C440.407 308.256 439.476 308.969 438.912 309.947L413.304 354.286C412.739 355.264 412.586 356.426 412.879 357.517C413.171 358.608 413.885 359.538 414.864 360.103ZM508.833 358.212L512.259 352.28C512.492 351.877 512.555 351.399 512.434 350.949C512.314 350.5 512.02 350.117 511.617 349.885L443.478 310.559C443.075 310.326 442.597 310.263 442.147 310.383C441.698 310.504 441.315 310.797 441.082 311.2L437.656 317.132L508.833 358.212ZM507.58 360.381L436.404 319.302L431.406 327.955L502.583 369.034L507.58 360.381ZM501.33 371.203L430.153 330.123L415.474 355.539C415.242 355.941 415.179 356.42 415.299 356.869C415.42 357.318 415.714 357.701 416.117 357.934L484.255 397.26C484.658 397.493 485.137 397.556 485.586 397.435C486.036 397.315 486.419 397.021 486.651 396.619L501.33 371.203Z" fill="#202220"/>
<path d="M478.821 366.222L433.431 340.025L432.178 342.194L477.568 368.391L478.821 366.222Z" fill="#202220"/>
<path d="M447.862 356.851L429.75 346.398L428.497 348.567L446.609 359.021L447.862 356.851Z" fill="#202220"/>
<path d="M458.593 363.045L452.555 359.56L451.302 361.729L457.34 365.214L458.593 363.045Z" fill="#202220"/>
<path d="M120.57 380.824C115.593 380.824 111.559 376.791 111.559 371.816C106.582 371.816 102.547 367.783 102.547 362.808C102.547 357.833 106.582 353.8 111.559 353.8C111.559 348.825 115.593 344.792 120.57 344.792C125.547 344.792 129.582 348.825 129.582 353.8C134.559 353.8 138.594 357.833 138.594 362.808C138.594 367.783 134.559 371.816 129.582 371.816C129.582 376.791 125.547 380.824 120.57 380.824Z" fill="#E1838D"/>
<path d="M291.807 3.7085C296.784 3.7085 300.819 7.74155 300.819 12.7166C305.796 12.7166 309.831 16.7496 309.831 21.7246C309.831 26.6997 305.796 30.7327 300.819 30.7327C300.819 35.7077 296.784 39.7408 291.807 39.7408C286.83 39.7408 282.796 35.7077 282.796 30.7327C277.819 30.7327 273.784 26.6997 273.784 21.7246C273.784 16.7496 277.819 12.7166 282.796 12.7166C282.796 7.74155 286.83 3.7085 291.807 3.7085Z" fill="#E1838D"/>
<path d="M473.998 240.574C478.975 240.574 483.01 244.607 483.01 249.582C487.987 249.582 492.022 253.615 492.022 258.59C492.022 263.565 487.987 267.599 483.01 267.599C483.01 272.574 478.975 276.607 473.998 276.607C469.021 276.607 464.987 272.574 464.987 267.599C460.01 267.599 455.975 263.565 455.975 258.59C455.975 253.615 460.01 249.582 464.987 249.582C464.987 244.607 469.021 240.574 473.998 240.574Z" fill="#DC616E"/>
<path d="M18.0233 109.203C23.0003 109.203 27.035 113.236 27.035 118.211C32.012 118.211 36.0466 122.244 36.0466 127.22C36.0466 132.195 32.012 136.228 27.035 136.228C27.035 141.203 23.0003 145.236 18.0233 145.236C13.0463 145.236 9.01166 141.203 9.01165 136.228C4.03465 136.228 0 132.195 0 127.22C0 122.244 4.03464 118.211 9.01165 118.211C9.01165 113.236 13.0463 109.203 18.0233 109.203Z" fill="#DC616E"/>
<path d="M291.248 318.715C357.532 318.715 411.257 265.016 411.257 198.774C411.257 132.533 357.532 78.8337 291.248 78.8337C224.969 78.8337 171.24 132.533 171.24 198.774C171.24 265.016 224.969 318.715 291.248 318.715Z" fill="#E1838D"/>
<path d="M291.248 102.286C321.045 102.287 349.779 113.367 371.858 133.37C393.929 153.373 407.773 180.868 410.685 210.506C411.06 206.65 411.248 202.742 411.257 198.785C411.257 166.975 398.609 136.467 376.11 113.974C353.602 91.4807 323.073 78.8441 291.248 78.8441C259.424 78.8441 228.896 91.4807 206.389 113.974C183.884 136.467 171.24 166.975 171.24 198.785C171.24 202.742 171.43 206.65 171.811 210.506C174.725 180.868 188.566 153.373 210.643 133.37C232.719 113.367 261.452 102.287 291.248 102.286Z" fill="#DC616E"/>
<path d="M291.732 323.179C223.099 323.179 167.257 267.368 167.257 198.774C167.257 130.181 223.09 74.3702 291.732 74.3702C360.373 74.3702 416.206 130.181 416.206 198.765C416.206 267.35 360.364 323.179 291.732 323.179ZM291.732 83.297C268.875 83.297 246.537 90.0699 227.538 102.759C208.538 115.448 193.729 133.484 184.983 154.585C176.238 175.687 173.951 198.906 178.41 221.307C182.869 243.708 193.874 264.283 210.034 280.433C226.194 296.582 246.787 307.58 269.197 312.035C291.607 316.489 314.839 314.201 335.954 305.46C357.069 296.718 375.111 281.915 387.803 262.924C400.504 243.933 407.275 221.606 407.275 198.765C407.239 168.152 395.047 138.802 373.387 117.156C351.727 95.509 322.359 83.3324 291.732 83.297Z" fill="#202220"/>
<path fill-rule="evenodd" clip-rule="evenodd" d="M292.202 186.58L339.738 139.06L358.408 157.724L310.872 205.244L358.408 252.763L339.738 271.427L292.202 223.907L244.666 271.427L225.996 252.763L273.532 205.244L225.996 157.724L244.666 139.06L292.202 186.58Z" fill="#D92B3E"/>
<path fill-rule="evenodd" clip-rule="evenodd" d="M292.202 186.58L339.738 139.06L358.408 157.724L310.872 205.244L358.408 252.763L339.738 271.427L292.202 223.907L244.666 271.427L225.996 252.763L273.532 205.244L225.996 157.724L244.666 139.06L292.202 186.58ZM262.268 205.243L214.732 157.724L244.666 127.801L292.202 175.32L339.738 127.801L369.671 157.724L322.135 205.243L369.671 252.763L339.738 282.686L292.202 235.167L244.666 282.686L214.732 252.763L262.268 205.243Z" fill="#202220"/>
<path d="M97.7771 81.6618C97.7771 81.6618 103.234 99.7765 89.9611 105.822C89.1524 106.199 88.5032 106.85 88.1283 107.659C87.7536 108.469 87.6773 109.384 87.9129 110.244C88.174 111.219 88.8115 112.049 89.6852 112.554C90.559 113.059 91.5973 113.196 92.5724 112.936L134.92 101.593C135.403 101.463 135.855 101.24 136.252 100.936C136.649 100.632 136.982 100.252 137.232 99.8197C137.482 99.3867 137.644 98.9091 137.709 98.4136C137.774 97.9184 137.741 97.4148 137.612 96.9322C137.384 96.0677 136.856 95.312 136.123 94.7998C135.39 94.2874 134.499 94.0514 133.608 94.1341C119.101 95.5263 114.77 77.1102 114.77 77.1102" fill="#CCCFCA"/>
<path d="M99.0884 98.4826C101.326 91.3577 98.9322 83.4128 98.9322 83.4128L115.925 78.8612C115.925 78.8612 117.825 86.9383 123.33 91.9892L99.0884 98.4826Z" fill="#B7BAB5"/>
<path d="M135.321 0.516179L41.38 25.679C39.2551 26.2482 37.994 28.4312 38.5632 30.5548L56.1718 96.2481C56.741 98.3716 58.925 99.632 61.0499 99.0628L154.991 73.9C157.116 73.3308 158.377 71.1477 157.808 69.0241L140.2 3.33088C139.63 1.2072 137.446 -0.0529473 135.321 0.516179Z" fill="#D92B3E"/>
<path d="M89.1305 14.0624L83.4875 94.2265L75.222 96.4405L80.865 16.2764L89.1305 14.0624Z" fill="#DC616E"/>
<path d="M110.86 8.24199L105.217 88.406L89.3275 92.6622L94.9705 12.4982L110.86 8.24199Z" fill="#DC616E"/>
<path d="M154.673 57.457L157.834 69.2492C158.064 71.3891 156.909 73.3882 155.017 73.8948L61.0759 99.0577C58.9598 99.6245 56.7002 98.1176 56.0543 95.7079L53.0945 84.6655L154.673 57.457Z" fill="#CCCFCA"/>
<path d="M154.844 58.098L53.2654 85.3065L54.2961 89.1518L155.875 61.9433L154.844 58.098Z" fill="#B7BAB5"/>
<path d="M154.78 70.4364L60.8381 95.5993C58.722 96.1661 56.4625 94.6591 55.8166 92.2494L56.7949 95.8992C57.4408 98.3089 59.7003 99.8159 61.8164 99.249L155.758 74.0862C157.65 73.5795 158.812 71.5819 158.575 69.4405L157.596 65.7907C157.833 67.9321 156.675 69.9288 154.78 70.4364Z" fill="#EEF0EC"/>
<path d="M106.921 82.8628C108.514 82.436 109.412 80.6194 108.926 78.8054C108.44 76.9914 106.753 75.867 105.16 76.2938C103.566 76.7207 102.668 78.5372 103.155 80.3512C103.641 82.1652 105.327 83.2897 106.921 82.8628Z" fill="#202220"/>
<path fill-rule="evenodd" clip-rule="evenodd" d="M97.3939 92.4111L61.8192 101.94C60.3736 102.327 58.8334 102.125 57.5374 101.377C56.2414 100.629 55.2958 99.3974 54.9085 97.9525L37.3008 32.2625C36.9136 30.8178 37.1165 29.2784 37.8648 27.983C38.6131 26.6876 39.8457 25.7423 41.2912 25.3551L135.233 0.19228C136.678 -0.194953 138.219 0.00763088 139.515 0.75544C140.81 1.50325 141.756 2.73502 142.143 4.17978L159.751 69.8697C160.138 71.3146 159.935 72.854 159.187 74.1493C158.439 75.4447 157.206 76.3899 155.761 76.7772L121.083 86.0659C124.47 90.7554 128.738 92.8858 133.767 92.3992C135.048 92.278 136.33 92.6166 137.384 93.3548C138.438 94.0926 139.194 95.1814 139.517 96.4264C139.888 97.8217 139.692 99.3073 138.972 100.559C138.252 101.811 137.066 102.728 135.672 103.109L93.3251 114.452C91.9246 114.825 90.4332 114.628 89.1781 113.904C87.923 113.18 87.0066 111.988 86.6299 110.589C86.288 109.352 86.3973 108.034 86.9382 106.869C87.4792 105.706 88.4165 104.771 89.5828 104.234C95.0025 101.77 96.9158 96.9373 97.3939 92.4111ZM100.83 91.4906L100.83 91.4918C100.53 96.9042 98.7027 101.232 95.481 104.261L113.884 99.3319L114.571 101.895L89.8953 108.505C89.7456 108.966 89.7561 109.466 89.9275 109.922C90.1132 110.416 90.4749 110.825 90.9432 111.07C91.4117 111.314 91.9538 111.378 92.4662 111.248L134.814 99.9049C135.328 99.7659 135.774 99.4403 136.062 98.9918C136.35 98.5431 136.461 98.003 136.372 97.4771C136.284 96.9515 136.003 96.4773 135.585 96.1471C135.166 95.8169 134.639 95.6544 134.107 95.6912C127.52 96.3293 121.844 93.3149 117.683 86.9764L100.83 91.4906ZM42.1501 28.5595C41.5549 28.7189 41.0474 29.1082 40.7393 29.6416C40.4311 30.175 40.3476 30.8088 40.507 31.4037L54.2409 82.6415L152.671 56.2763L138.937 5.03858C138.778 4.44369 138.388 3.93652 137.855 3.62856C137.321 3.32065 136.687 3.23719 136.092 3.39667L42.1501 28.5595ZM153.53 59.4807L55.0998 85.8459L58.1147 97.0937C58.1936 97.3882 58.3299 97.6645 58.5156 97.9064C58.7013 98.1482 58.933 98.3513 59.1972 98.5038C59.4615 98.6562 59.7531 98.755 60.0556 98.7949C60.3582 98.8347 60.6655 98.8146 60.9603 98.7356L154.902 73.5728C155.196 73.4938 155.473 73.3577 155.715 73.1719C155.957 72.9862 156.16 72.7549 156.313 72.4908C156.465 72.2266 156.564 71.935 156.604 71.6328C156.644 71.3305 156.624 71.023 156.545 70.7285L153.53 59.4807Z" fill="#202220"/>
</svg>
