<svg width="516" height="400" viewBox="0 0 516 400" fill="none" xmlns="http://www.w3.org/2000/svg">
<path d="M512.385 348.799L444.253 309.477C442.815 308.646 440.976 309.139 440.145 310.577L414.539 354.913C413.709 356.351 414.201 358.189 415.64 359.019L483.772 398.342C485.21 399.172 487.049 398.679 487.88 397.242L513.486 352.905C514.317 351.468 513.823 349.629 512.385 348.799Z" fill="#45853A"/>
<path d="M509.852 359.2L436.511 316.872L430.261 327.694L503.602 370.022L509.852 359.2Z" fill="#B7BAB5"/>
<path d="M454.717 329.623L435.318 318.427L438.791 312.414C439.708 310.826 441.664 310.225 443.139 311.077L457.866 319.576C457.007 322.982 455.956 326.336 454.717 329.623Z" fill="#569B4A"/>
<path d="M448.962 340.732C447.647 343 446.205 345.192 444.643 347.298C439.134 354.722 431.932 361 423.891 365.062L414.495 359.639C413.019 358.787 412.564 356.789 413.478 355.206L428.619 328.991L448.962 340.732Z" fill="#569B4A"/>
<path d="M449.795 339.29L429.452 327.548L435.286 317.446L454.803 328.71C453.393 332.354 451.72 335.89 449.795 339.29Z" fill="#EEF0EC"/>
<path d="M433.575 340.025L478.965 366.222L477.712 368.391L432.322 342.194L433.575 340.025Z" fill="#202220"/>
<path d="M448.007 356.852L429.894 346.398L428.641 348.567L446.754 359.021L448.007 356.852Z" fill="#202220"/>
<path d="M452.699 359.56L458.737 363.045L457.485 365.214L451.446 361.729L452.699 359.56Z" fill="#202220"/>
<path fill-rule="evenodd" clip-rule="evenodd" d="M483.147 399.429L415.008 360.103C414.03 359.538 413.316 358.608 413.023 357.517C412.731 356.426 412.884 355.264 413.448 354.286L439.056 309.948C439.621 308.969 440.551 308.256 441.643 307.964C442.734 307.671 443.897 307.825 444.876 308.389L513.014 347.715C513.993 348.28 514.707 349.21 514.999 350.301C515.292 351.392 515.139 352.555 514.574 353.533L488.966 397.871C488.401 398.849 487.471 399.563 486.38 399.855C485.288 400.147 484.125 399.994 483.147 399.429ZM512.404 352.28L508.977 358.212L437.801 317.132L441.227 311.2C441.459 310.797 441.842 310.504 442.292 310.383C442.741 310.263 443.22 310.326 443.623 310.559L511.761 349.885C512.164 350.117 512.458 350.5 512.579 350.95C512.699 351.399 512.636 351.877 512.404 352.28ZM436.548 319.302L507.725 360.381L502.727 369.034L431.551 327.955L436.548 319.302ZM430.297 330.124L501.474 371.203L486.796 396.619C486.563 397.021 486.18 397.315 485.731 397.435C485.281 397.556 484.803 397.493 484.399 397.26L416.261 357.934C415.858 357.702 415.564 357.318 415.444 356.869C415.323 356.42 415.386 355.941 415.619 355.539L430.297 330.124Z" fill="#202220"/>
<path d="M291.873 318.716C358.156 318.716 411.882 265.016 411.882 198.774C411.882 132.533 358.156 78.8337 291.873 78.8337C225.594 78.8337 171.864 132.533 171.864 198.774C171.864 265.016 225.594 318.716 291.873 318.716Z" fill="#569B4A"/>
<path d="M291.873 102.286C321.67 102.287 350.404 113.367 372.483 133.37C394.554 153.373 408.398 180.868 411.31 210.506C411.685 206.65 411.873 202.742 411.882 198.785C411.882 166.975 399.234 136.467 376.735 113.974C354.226 91.4807 323.697 78.8441 291.873 78.8441C260.049 78.8441 229.52 91.4807 207.014 113.974C184.508 136.467 171.864 166.975 171.864 198.785C171.864 202.742 172.055 206.65 172.436 210.506C175.35 180.868 189.191 153.373 211.267 133.37C233.343 113.367 262.076 102.287 291.873 102.286Z" fill="#45853A"/>
<path d="M291.876 323.179C223.244 323.179 167.402 267.368 167.402 198.774C167.402 130.181 223.235 74.3702 291.876 74.3702C360.518 74.3702 416.351 130.181 416.351 198.765C416.351 267.35 360.509 323.179 291.876 323.179ZM291.876 83.297C269.02 83.297 246.681 90.0699 227.683 102.759C208.682 115.448 193.873 133.484 185.128 154.585C176.383 175.687 174.095 198.906 178.554 221.307C183.014 243.708 194.019 264.283 210.178 280.433C226.339 296.582 246.931 307.58 269.341 312.035C291.751 316.489 314.983 314.201 336.098 305.46C357.213 296.718 375.255 281.915 387.947 262.924C400.649 243.933 407.419 221.606 407.419 198.765C407.383 168.152 395.191 138.802 373.531 117.156C351.872 95.509 322.504 83.3324 291.876 83.297Z" fill="#202220"/>
<path d="M279.698 258.094L226.294 215.647L248.204 188.117L274.214 208.8L330.02 139.456L357.441 161.497L279.698 258.094Z" fill="#3CB826"/>
<path d="M280.399 264.353L220.047 216.362L247.494 181.806L273.522 202.499L329.337 133.137L363.716 160.81L280.399 264.353ZM232.551 214.934L278.997 251.846L351.167 162.167L330.704 145.715L274.915 215.032L248.924 194.375L232.551 214.934Z" fill="#202220"/>
<path d="M381.451 74.3702C381.598 68.9855 382.887 63.6934 385.234 58.8445C390.511 48.295 400.467 42.5227 413.31 42.5227C419.98 42.5227 424.261 40.2336 426.949 35.357C428.319 32.5954 429.099 29.5788 429.239 26.4994C429.239 25.4585 429.445 24.4279 429.847 23.4674C430.248 22.507 430.837 21.6358 431.578 20.9044C432.318 20.173 433.197 19.5959 434.163 19.2067C435.129 18.8175 436.162 18.6238 437.203 18.637C439.316 18.637 441.342 19.4759 442.835 20.969C444.329 22.4621 445.168 24.4873 445.168 26.5989C445.168 39.4374 436.706 58.4464 413.31 58.4464C406.639 58.4464 402.358 60.7355 399.67 65.6121C398.3 68.3736 397.52 71.3902 397.38 74.4697C397.38 75.5106 397.174 76.5412 396.772 77.5017C396.371 78.4621 395.783 79.3333 395.042 80.0647C394.301 80.7961 393.422 81.3732 392.456 81.7624C391.49 82.1516 390.457 82.3452 389.416 82.332C387.303 82.332 385.277 81.4932 383.784 80.0001C382.29 78.5069 381.451 76.4818 381.451 74.3702ZM357.557 42.5227V18.637C357.557 16.5254 358.396 14.5003 359.89 13.0071C361.384 11.514 363.409 10.6751 365.522 10.6751C367.634 10.6751 369.66 11.514 371.154 13.0071C372.647 14.5003 373.486 16.5254 373.486 18.637V42.5227C373.486 44.6343 372.647 46.6594 371.154 48.1526C369.66 49.6457 367.634 50.4845 365.522 50.4845C363.409 50.4845 361.384 49.6457 359.89 48.1526C358.396 46.6594 357.557 44.6343 357.557 42.5227ZM458.808 124.43C460.303 125.94 461.142 127.979 461.142 130.103C461.142 132.228 460.303 134.267 458.808 135.776C457.285 137.248 455.25 138.07 453.133 138.07C451.015 138.07 448.98 137.248 447.458 135.776L431.529 119.852C430.259 118.305 429.61 116.342 429.708 114.343C429.806 112.344 430.644 110.453 432.06 109.038C433.476 107.623 435.367 106.785 437.367 106.686C439.366 106.588 441.331 107.237 442.878 108.507L458.808 124.43ZM463.586 81.934L439.692 89.8958C438.892 90.1724 438.05 90.3072 437.203 90.2939C435.309 90.2944 433.477 89.62 432.035 88.3917C430.593 87.1634 429.637 85.4616 429.337 83.5919C429.037 81.7222 429.414 79.8069 430.4 78.1897C431.385 76.5726 432.915 75.3595 434.715 74.7683L458.608 66.8064C459.602 66.4797 460.65 66.3517 461.693 66.43C462.736 66.5082 463.754 66.7911 464.688 67.2624C465.621 67.7337 466.453 68.3843 467.135 69.1769C467.818 69.9696 468.337 70.8888 468.664 71.8821C468.991 72.8754 469.119 73.9233 469.04 74.966C468.962 76.0087 468.679 77.0258 468.208 77.9592C467.736 78.8926 467.085 79.7241 466.292 80.406C465.499 81.088 464.58 81.6072 463.586 81.934Z" fill="#45853A"/>
<path fill-rule="evenodd" clip-rule="evenodd" d="M186.116 380.556C181.287 379.349 178.352 374.458 179.559 369.632L184.064 351.616C185.272 346.789 190.164 343.855 194.993 345.061C199.821 346.268 202.757 351.159 201.55 355.985L197.044 374.001C195.837 378.828 190.944 381.762 186.116 380.556ZM246.877 380.825C241.9 380.825 237.865 376.792 237.865 371.816C232.888 371.816 228.854 367.783 228.854 362.808C228.854 357.833 232.888 353.8 237.865 353.8C237.865 348.825 241.9 344.792 246.877 344.792C251.854 344.792 255.889 348.825 255.889 353.8C260.866 353.8 264.9 357.833 264.9 362.808C264.9 367.783 260.866 371.816 255.889 371.816C255.889 376.792 251.854 380.825 246.877 380.825ZM150.388 333.146C146.869 329.628 146.869 323.924 150.388 320.406L159.4 311.398C162.919 307.88 168.625 307.88 172.144 311.398C175.664 314.916 175.664 320.62 172.144 324.138L163.133 333.146C159.613 336.664 153.908 336.664 150.388 333.146ZM102.96 297.433C101.752 292.606 104.688 287.715 109.517 286.509L127.54 282.005C132.368 280.798 137.261 283.733 138.468 288.559C139.675 293.386 136.74 298.276 131.911 299.483L113.888 303.987C109.059 305.194 104.167 302.259 102.96 297.433ZM120.714 254.712C115.737 254.712 111.702 250.678 111.702 245.703C106.725 245.703 102.69 241.67 102.69 236.695C102.69 231.72 106.725 227.687 111.702 227.687C111.702 222.712 115.737 218.679 120.714 218.679C125.691 218.679 129.725 222.712 129.725 227.687C134.702 227.687 138.737 231.72 138.737 236.695C138.737 241.67 134.702 245.703 129.725 245.703C129.725 250.678 125.691 254.712 120.714 254.712Z" fill="#45853A"/>
<path d="M120.715 380.825C115.738 380.825 111.703 376.792 111.703 371.816C106.726 371.816 102.691 367.783 102.691 362.808C102.691 357.833 106.726 353.8 111.703 353.8C111.703 348.825 115.738 344.792 120.715 344.792C125.692 344.792 129.726 348.825 129.726 353.8C134.703 353.8 138.738 357.833 138.738 362.808C138.738 367.783 134.703 371.816 129.726 371.816C129.726 376.792 125.692 380.825 120.715 380.825Z" fill="#E1838D"/>
<path d="M291.952 3.7085C296.929 3.7085 300.964 7.74155 300.964 12.7166C305.941 12.7166 309.975 16.7496 309.975 21.7246C309.975 26.6997 305.941 30.7327 300.964 30.7327C300.964 35.7077 296.929 39.7408 291.952 39.7408C286.975 39.7408 282.94 35.7077 282.94 30.7327C277.963 30.7327 273.929 26.6997 273.929 21.7246C273.929 16.7496 277.963 12.7166 282.94 12.7166C282.94 7.74155 286.975 3.7085 291.952 3.7085Z" fill="#E1838D"/>
<path d="M474.143 240.574C479.12 240.574 483.154 244.607 483.154 249.582C488.131 249.582 492.166 253.616 492.166 258.591C492.166 263.566 488.131 267.599 483.154 267.599C483.154 272.574 479.12 276.607 474.143 276.607C469.166 276.607 465.131 272.574 465.131 267.599C460.154 267.599 456.119 263.566 456.119 258.591C456.119 253.616 460.154 249.582 465.131 249.582C465.131 244.607 469.166 240.574 474.143 240.574Z" fill="#DC616E"/>
<path d="M18.1678 109.203C23.1448 109.203 27.1795 113.236 27.1795 118.211C32.1565 118.211 36.1912 122.244 36.1912 127.22C36.1912 132.195 32.1565 136.228 27.1795 136.228C27.1795 141.203 23.1448 145.236 18.1678 145.236C13.1908 145.236 9.15619 141.203 9.15618 136.228C4.17918 136.228 0.144531 132.195 0.144531 127.22C0.144531 122.244 4.17917 118.211 9.15618 118.211C9.15618 113.236 13.1908 109.203 18.1678 109.203Z" fill="#DC616E"/>
<path d="M97.9222 81.6618C97.9222 81.6618 103.379 99.7766 90.1062 105.822C89.2975 106.199 88.6483 106.85 88.2734 107.659C87.8987 108.469 87.8223 109.384 88.058 110.244C88.3191 111.219 88.9566 112.049 89.8303 112.554C90.704 113.059 91.7424 113.196 92.7175 112.936L135.065 101.593C135.548 101.463 136.001 101.24 136.397 100.936C136.794 100.632 137.127 100.252 137.377 99.8197C137.627 99.3867 137.789 98.9091 137.854 98.4136C137.919 97.9184 137.887 97.4148 137.757 96.9322C137.529 96.0677 137.001 95.312 136.268 94.7999C135.535 94.2874 134.644 94.0514 133.753 94.1341C119.247 95.5264 114.915 77.1102 114.915 77.1102" fill="#CCCFCA"/>
<path d="M99.2334 98.4826C101.471 91.3577 99.0772 83.4128 99.0772 83.4128L116.07 78.8612C116.07 78.8612 117.97 86.9383 123.475 91.9892L99.2334 98.4826Z" fill="#B7BAB5"/>
<path d="M134.982 2.6931L43.0359 27.3215C40.9562 27.8785 39.7207 30.0109 40.2764 32.0842L57.4676 96.2203C58.0233 98.2935 60.1598 99.5228 62.2395 98.9657L154.186 74.3374C156.265 73.7803 157.501 71.6478 156.945 69.5746L139.754 5.43854C139.198 3.3652 137.062 2.13606 134.982 2.6931Z" fill="#45853A"/>
<path d="M89.2757 14.0625L83.6327 94.2265L75.3671 96.4405L81.0101 16.2764L89.2757 14.0625Z" fill="#569B4A"/>
<path d="M111.005 8.24199L105.362 88.406L89.4725 92.6622L95.1154 12.4982L111.005 8.24199Z" fill="#569B4A"/>
<path d="M154.818 57.457L157.979 69.2492C158.209 71.3891 157.054 73.3882 155.162 73.8949L61.2207 99.0577C59.1047 99.6245 56.8451 98.1176 56.1992 95.7079L53.2394 84.6656L154.818 57.457Z" fill="#CCCFCA"/>
<path d="M154.989 58.098L53.4105 85.3065L54.4412 89.1518L156.02 61.9433L154.989 58.098Z" fill="#B7BAB5"/>
<path d="M153.889 70.7137L60.9425 95.6102C58.8488 96.171 56.6076 94.6591 55.9617 92.2494L56.94 95.8992C57.5859 98.3089 59.8271 99.8208 61.9208 99.26L154.868 74.3635C156.739 73.8622 157.885 71.8691 157.644 69.7286L156.666 66.0788C156.906 68.2193 155.764 70.2115 153.889 70.7137Z" fill="#EEF0EC"/>
<path d="M109.071 78.8054C109.557 80.6194 108.659 82.436 107.065 82.8628C105.472 83.2897 103.786 82.1652 103.299 80.3512C102.813 78.5372 103.711 76.7207 105.305 76.2938C106.898 75.867 108.584 76.9914 109.071 78.8054Z" fill="#202220"/>
<path fill-rule="evenodd" clip-rule="evenodd" d="M61.9637 101.94L97.5366 92.4116C97.0584 96.9377 95.1451 101.77 89.7255 104.234C88.5592 104.771 87.6219 105.706 87.081 106.869C86.5401 108.034 86.4307 109.352 86.7726 110.589C87.1493 111.988 88.0657 113.18 89.3209 113.904C90.576 114.628 92.0673 114.825 93.4678 114.452L135.815 103.109C137.209 102.728 138.395 101.811 139.115 100.559C139.835 99.3073 140.031 97.8217 139.66 96.4265C139.336 95.1815 138.58 94.0926 137.527 93.3549C136.473 92.6167 135.191 92.278 133.91 92.3993C128.881 92.8858 124.613 90.7555 121.226 86.0663L155.905 76.7772C157.351 76.3899 158.583 75.4447 159.332 74.1493C160.08 72.854 160.283 71.3146 159.896 69.8697L142.288 4.17978C141.901 2.73502 140.955 1.50325 139.659 0.75544C138.363 0.00763095 136.823 -0.194953 135.377 0.192281L41.4357 25.3551C39.9902 25.7423 38.7577 26.6876 38.0093 27.983C37.261 29.2784 37.0581 30.8178 37.4454 32.2625L55.053 97.9525C55.4403 99.3974 56.3859 100.629 57.6819 101.377C58.9779 102.125 60.5181 102.327 61.9637 101.94ZM100.973 91.4911L117.826 86.9768C121.986 93.3151 127.663 96.3293 134.249 95.6913C134.782 95.6544 135.309 95.817 135.727 96.1472C136.146 96.4773 136.427 96.9516 136.515 97.4772C136.603 98.003 136.493 98.5431 136.205 98.9918C135.916 99.4403 135.471 99.766 134.956 99.9049L92.6089 111.248C92.0965 111.378 91.5544 111.314 91.0859 111.07C90.6176 110.825 90.2559 110.417 90.0702 109.922C89.8988 109.466 89.8883 108.966 90.038 108.505L114.714 101.895L114.027 99.3319L95.6237 104.261C98.8454 101.232 100.673 96.9034 100.973 91.4911ZM40.8838 29.6416C41.1919 29.1082 41.6994 28.719 42.2947 28.5595L136.236 3.39667C136.831 3.23719 137.466 3.32065 137.999 3.62856C138.533 3.93652 138.922 4.44369 139.082 5.03858L152.816 56.2763L54.3854 82.6415L40.6516 31.4037C40.4921 30.8089 40.5756 30.175 40.8838 29.6416ZM55.2443 85.8459L153.674 59.4807L156.689 70.7285C156.768 71.023 156.788 71.3305 156.749 71.6328C156.709 71.9351 156.61 72.2267 156.457 72.4908C156.305 72.7549 156.101 72.9862 155.859 73.1719C155.617 73.3577 155.341 73.4939 155.046 73.5728L61.1048 98.7356C60.81 98.8146 60.5027 98.8347 60.2001 98.7949C59.8976 98.755 59.606 98.6563 59.3417 98.5038C59.0775 98.3513 58.8459 98.1483 58.6601 97.9064C58.4745 97.6646 58.3381 97.3882 58.2592 97.0937L55.2443 85.8459Z" fill="#202220"/>
</svg>
