<svg width="25" height="30" viewBox="0 0 25 30" fill="none" xmlns="http://www.w3.org/2000/svg">
<path d="M12.5 21C15.05 18.7 16.6875 17.081 17.4125 16.143C18.1375 15.206 18.5 14.275 18.5 13.35C18.5 12.45 18.175 11.675 17.525 11.025C16.875 10.375 16.1 10.05 15.2 10.05C14.675 10.05 14.169 10.156 13.682 10.368C13.194 10.581 12.8 10.875 12.5 11.25C12.2 10.875 11.8125 10.581 11.3375 10.368C10.8625 10.156 10.35 10.05 9.8 10.05C8.9 10.05 8.125 10.375 7.475 11.025C6.825 11.675 6.5 12.45 6.5 13.35C6.5 13.825 6.5625 14.2625 6.6875 14.6625C6.8125 15.0625 7.0875 15.531 7.5125 16.068C7.9375 16.606 8.5435 17.2625 9.3305 18.0375C10.1185 18.8125 11.175 19.8 12.5 21ZM12.5 30C9.025 29.125 6.1565 27.131 3.8945 24.018C1.6315 20.906 0.5 17.45 0.5 13.65V4.5L12.5 0L24.5 4.5V13.65C24.5 17.45 23.369 20.906 21.107 24.018C18.844 27.131 15.975 29.125 12.5 30Z" fill="#45853A"/>
</svg>
